<svg width="450" height="58" viewBox="0 0 450 58" fill="none" xmlns="http://www.w3.org/2000/svg">
<path d="M56.7773 44.7871C54.1805 44.7871 51.8828 44.2987 49.8942 43.3268C47.9055 42.3549 46.3405 40.8696 45.2141 38.881C44.0827 36.8873 43.5195 34.3703 43.5195 31.32C43.5195 28.8928 43.8783 26.64 44.601 24.5616C45.3188 22.4832 46.3505 20.6689 47.6962 19.1189C49.0369 17.5638 50.6916 16.3527 52.6504 15.4755C54.6141 14.5983 56.8221 14.1647 59.2793 14.1647C60.9739 14.1647 62.5838 14.4039 64.1089 14.8824C65.6341 15.3608 66.9598 16.0537 68.0912 16.9608C68.5149 17.2698 68.7741 17.6336 68.8737 18.0423C68.9734 18.451 68.9585 18.8547 68.8339 19.2485C68.7043 19.6422 68.5099 19.9762 68.2408 20.2453C67.9716 20.5144 67.6476 20.669 67.2639 20.7138C66.8801 20.7537 66.4963 20.649 66.0976 20.3948C64.9961 19.5475 63.8796 18.9494 62.7482 18.5956C61.6168 18.2417 60.4057 18.0672 59.1048 18.0672C56.8171 18.0672 54.8534 18.6404 53.2186 19.7818C51.5788 20.9281 50.3328 22.4931 49.4705 24.4868C48.6083 26.4804 48.1796 28.7283 48.1796 31.2453C48.1796 33.533 48.5335 35.3821 49.2363 36.7926C49.944 38.2031 50.9658 39.2448 52.3065 39.9077C53.6472 40.5706 55.277 40.9045 57.2009 40.9045C58.3871 40.9045 59.5036 40.74 60.5453 40.4161C61.5919 40.0921 62.6486 39.5488 63.7251 38.7863C64.1787 38.5022 64.6023 38.3825 64.9961 38.4274C65.3898 38.4673 65.7238 38.6268 65.9929 38.8959C66.2621 39.165 66.4365 39.489 66.5212 39.8678C66.606 40.2516 66.576 40.6354 66.4365 41.0341C66.2969 41.4279 66.0129 41.7668 65.5892 42.0509C64.3182 42.9829 62.9227 43.6757 61.3926 44.1292C59.8674 44.5629 58.3323 44.7871 56.7773 44.7871Z" fill="black"/>
<path d="M81.0948 44.7874C79.8538 44.7874 78.6227 44.7026 77.4066 44.5332C76.1905 44.3637 75.0192 44.0746 73.8878 43.6659C72.7564 43.2572 71.7147 42.7289 70.7528 42.076C70.3291 41.8218 70.04 41.4979 69.8855 41.0991C69.731 40.7054 69.6961 40.3166 69.7809 39.9328C69.8656 39.549 70.0351 39.2201 70.2892 38.936C70.5434 38.6519 70.8774 38.4824 71.2861 38.4276C71.6948 38.3728 72.1384 38.4825 72.6218 38.7666C73.9775 39.6139 75.398 40.2069 76.8783 40.5459C78.3635 40.8848 79.8937 41.0543 81.4736 41.0543C83.5919 41.0543 85.2915 40.6256 86.5774 39.7634C87.8633 38.9011 88.5062 37.7348 88.5062 36.2695C88.5062 35.2228 88.1225 34.3356 87.3649 33.598C86.6023 32.8653 85.2865 32.2972 83.4224 31.9034L78.9317 30.8019C76.9281 30.3234 75.3232 29.4811 74.122 28.2799C72.9209 27.0788 72.3228 25.4191 72.3228 23.3008C72.3228 21.8903 72.6218 20.6193 73.2149 19.4879C73.808 18.3565 74.6404 17.3896 75.717 16.5872C76.7886 15.7847 78.0196 15.1767 79.4052 14.768C80.7908 14.3593 82.2561 14.1549 83.8112 14.1549C85.3912 14.1549 87.0359 14.3742 88.7455 14.8128C90.455 15.2514 91.9702 15.9791 93.301 16.9959C93.6947 17.28 93.9589 17.6189 94.0835 18.0126C94.2131 18.4064 94.233 18.7951 94.1483 19.1789C94.0635 19.5627 93.8941 19.8717 93.6399 20.1109C93.3857 20.3502 93.0518 20.4848 92.6431 20.5147C92.2344 20.5446 91.7459 20.3901 91.1827 20.0462C90.136 19.3135 88.9598 18.7702 87.644 18.4164C86.3332 18.0625 85.0223 17.888 83.7264 17.888C82.3708 17.888 81.1646 18.0974 80.103 18.521C79.0414 18.9447 78.209 19.5328 77.601 20.2804C76.9929 21.028 76.6889 21.9252 76.6889 22.9719C76.6889 24.2428 77.0278 25.1898 77.7056 25.8078C78.3835 26.4308 79.3853 26.9093 80.7111 27.2482L85.2018 28.3497C87.7985 28.9428 89.7273 29.8749 90.9833 31.1458C92.2393 32.4168 92.8673 33.9569 92.8673 35.7611C92.8673 37.2564 92.5583 38.5721 91.9353 39.7035C91.3123 40.8349 90.46 41.772 89.3735 42.5196C88.2869 43.2672 87.0359 43.8304 85.6254 44.2142C84.2149 44.598 82.7047 44.7874 81.0948 44.7874Z" fill="black"/>
<path d="M98.8882 44.7026C98.1256 44.7026 97.5873 44.4734 97.2783 44.0248C96.9693 43.5712 96.8696 42.9383 96.9792 42.1159L101.091 16.4027C101.206 15.695 101.46 15.1617 101.854 14.7929C102.247 14.4241 102.816 14.2446 103.548 14.2446C104.281 14.2446 104.804 14.4639 105.118 14.9026C105.427 15.3412 105.512 15.9841 105.373 16.8314L101.305 42.5047C101.191 43.2124 100.947 43.7556 100.563 44.1344C100.179 44.5132 99.6208 44.7026 98.8882 44.7026Z" fill="black"/>
<path d="M117.484 44.7026C116.776 44.7026 116.263 44.4734 115.939 44.0248C115.615 43.5713 115.51 42.9532 115.62 42.1607L119.388 18.227H110.79C110.167 18.227 109.684 18.0924 109.33 17.8232C108.976 17.5541 108.802 17.1803 108.802 16.7018C108.802 16.024 109.006 15.4957 109.415 15.1119C109.823 14.7281 110.352 14.5387 111.005 14.5387H132.995C133.642 14.5387 134.136 14.6633 134.48 14.9175C134.819 15.1717 134.988 15.5405 134.988 16.019C134.988 16.7267 134.789 17.27 134.395 17.6488C134.001 18.0326 133.463 18.222 132.785 18.222H123.804L119.951 42.5395C119.836 43.2473 119.577 43.7856 119.169 44.1494C118.75 44.5182 118.192 44.7026 117.484 44.7026Z" fill="black"/>
<path d="M450 0H146.477V57.5268H450V0Z" fill="black"/>
<path d="M165.282 43.9201C164.803 43.9201 164.4 43.8055 164.066 43.5812C163.732 43.3569 163.532 43.0479 163.467 42.6641C163.403 42.2803 163.502 41.8467 163.767 41.3683L178.719 16.647C179.038 16.1685 179.377 15.8147 179.736 15.5904C180.095 15.3661 180.553 15.2514 181.111 15.2514C181.67 15.2514 182.128 15.386 182.487 15.6502C182.846 15.9143 183.105 16.328 183.264 16.8862L190.202 41.2486C190.387 41.8617 190.427 42.3651 190.322 42.7638C190.217 43.1625 190.008 43.4566 189.704 43.641C189.4 43.8254 189.031 43.9201 188.607 43.9201C188.024 43.9201 187.566 43.7656 187.232 43.4616C186.898 43.1576 186.654 42.699 186.494 42.086L184.859 35.9056L186.255 36.7829H169.508L171.303 35.9854L167.355 42.6841C167.141 43.1077 166.862 43.4217 166.518 43.6211C166.174 43.8205 165.76 43.9201 165.282 43.9201ZM180.593 20.1159L172.379 34.1513L171.462 33.4335H185.378L184.381 34.1911L180.673 20.1159H180.593Z" fill="white"/>
<path d="M196.981 43.641C196.238 43.641 195.685 43.4267 195.326 43.0031C194.967 42.5794 194.843 41.9913 194.947 41.2486L198.735 17.5641C198.84 16.8713 199.094 16.3629 199.493 16.0289C199.891 15.695 200.425 15.5305 201.088 15.5305H215.841C216.424 15.5305 216.872 15.6452 217.176 15.8695C217.48 16.0938 217.635 16.4327 217.635 16.8862C217.635 17.4993 217.461 17.9827 217.117 18.3416C216.773 18.7004 216.279 18.8799 215.641 18.8799H202.523L201.128 27.6121H208.384C211.39 27.6121 213.648 28.2849 215.163 29.6257C216.678 30.9664 217.436 32.7158 217.436 34.869C217.436 37.7398 216.543 39.9179 214.764 41.4081C212.985 42.8984 210.378 43.641 206.949 43.641H196.981ZM199.094 40.2917H207.108C209.207 40.2917 210.782 39.8531 211.833 38.9759C212.885 38.0987 213.408 36.7978 213.408 35.0683C213.408 33.6877 212.955 32.656 212.053 31.9781C211.151 31.3003 209.755 30.9614 207.866 30.9614H200.609L199.094 40.2917Z" fill="white"/>
<path d="M222.779 43.9999C222.405 43.9999 222.121 43.9401 221.921 43.8204C221.722 43.7008 221.582 43.5413 221.503 43.342C221.423 43.1426 221.378 42.9283 221.363 42.704C221.348 42.4797 221.358 42.2604 221.383 42.0461L225.33 17.1653C225.435 16.5024 225.674 16.014 226.048 15.71C226.422 15.4059 226.9 15.2514 227.484 15.2514C228.146 15.2514 228.615 15.4508 228.879 15.8495C229.143 16.2482 229.223 16.7915 229.118 17.4843L225.849 38.0189L224.852 37.9392L244.868 16.2482C245.083 16.009 245.352 15.7847 245.686 15.5704C246.02 15.3561 246.448 15.2514 246.981 15.2514C247.485 15.2514 247.844 15.3511 248.058 15.5505C248.272 15.7498 248.392 15.9891 248.417 16.2682C248.442 16.5473 248.432 16.8463 248.377 17.1653L244.47 42.0062C244.39 42.6442 244.155 43.1227 243.772 43.4416C243.388 43.7606 242.9 43.9201 242.316 43.9201C241.653 43.9201 241.185 43.7208 240.921 43.322C240.657 42.9233 240.577 42.3651 240.682 41.6474L243.911 21.1128L244.908 21.1925L224.852 43.0031C224.638 43.2174 224.378 43.4367 224.074 43.6609C223.77 43.8902 223.337 43.9999 222.779 43.9999Z" fill="white"/>
<path d="M259.701 43.9201C259.038 43.9201 258.55 43.7058 258.246 43.2822C257.942 42.8585 257.842 42.2704 257.947 41.5278L261.495 18.9995H253.401C252.818 18.9995 252.359 18.8749 252.025 18.6207C251.692 18.3665 251.527 18.0176 251.527 17.5641C251.527 16.9261 251.721 16.4277 252.105 16.0688C252.489 15.71 252.987 15.5305 253.6 15.5305H274.295C274.908 15.5305 275.371 15.6502 275.69 15.8894C276.009 16.1286 276.169 16.4725 276.169 16.9261C276.169 17.589 275.984 18.1023 275.61 18.4612C275.237 18.8201 274.733 18.9995 274.095 18.9995H265.642L262.014 41.8866C261.909 42.5495 261.66 43.0579 261.276 43.4018C260.892 43.7507 260.364 43.9201 259.701 43.9201Z" fill="white"/>
<path d="M282.269 43.9201C281.766 43.9201 281.347 43.7955 281.013 43.5413C280.679 43.2871 280.49 42.9582 280.435 42.5445C280.38 42.1308 280.515 41.6872 280.834 41.2088L285.379 34.3905V35.8259L277.046 17.7634C276.831 17.285 276.772 16.8613 276.866 16.4875C276.961 16.1137 277.185 15.8146 277.544 15.5904C277.903 15.3661 278.322 15.2514 278.8 15.2514C279.413 15.2514 279.852 15.4259 280.116 15.7698C280.38 16.1137 280.634 16.5274 280.874 17.0058L287.772 32.0778H286.934L297.381 16.5274C297.62 16.2084 297.899 15.9143 298.218 15.6502C298.537 15.386 298.976 15.2514 299.534 15.2514C300.038 15.2514 300.451 15.3711 300.77 15.6103C301.089 15.8495 301.274 16.1735 301.328 16.5872C301.383 17.0009 301.264 17.4295 300.97 17.883L284.422 42.6043C284.183 42.9482 283.904 43.2572 283.585 43.5214C283.266 43.7905 282.827 43.9201 282.269 43.9201Z" fill="white"/>
<path d="M303.202 43.9201C302.54 43.9201 302.051 43.7058 301.747 43.2822C301.443 42.8585 301.328 42.2704 301.408 41.5278L305.236 17.5641C305.341 16.8713 305.595 16.3629 305.994 16.0289C306.392 15.695 306.926 15.5305 307.589 15.5305H316.042C319.017 15.5305 321.305 16.1835 322.9 17.4843C324.495 18.7852 325.292 20.6991 325.292 23.226C325.292 26.1517 324.375 28.4644 322.541 30.1639C320.707 31.8635 318.035 32.7158 314.526 32.7158H306.911L305.475 41.8866C305.371 42.5794 305.131 43.0878 304.758 43.4217C304.384 43.7556 303.865 43.9201 303.202 43.9201ZM307.469 29.4063H314.766C316.894 29.4063 318.509 28.903 319.61 27.8912C320.712 26.8794 321.265 25.419 321.265 23.5051C321.265 21.9102 320.791 20.734 319.849 19.9764C318.907 19.2188 317.492 18.84 315.603 18.84H309.144L307.469 29.4063Z" fill="white"/>
<path d="M328.322 43.9999C327.949 43.9999 327.665 43.9401 327.465 43.8204C327.266 43.7008 327.126 43.5413 327.047 43.342C326.967 43.1426 326.922 42.9283 326.907 42.704C326.892 42.4797 326.902 42.2604 326.927 42.0461L330.874 17.1653C330.979 16.5024 331.218 16.014 331.592 15.71C331.966 15.4059 332.444 15.2514 333.028 15.2514C333.69 15.2514 334.159 15.4508 334.423 15.8495C334.687 16.2482 334.767 16.7915 334.662 17.4843L331.393 38.0189L330.396 37.9392L350.412 16.2482C350.626 16.009 350.896 15.7847 351.23 15.5704C351.563 15.3561 351.992 15.2514 352.525 15.2514C353.029 15.2514 353.388 15.3511 353.602 15.5505C353.816 15.7498 353.936 15.9891 353.961 16.2682C353.986 16.5473 353.976 16.8463 353.921 17.1653L350.013 42.0062C349.934 42.6442 349.699 43.1227 349.316 43.4416C348.932 43.7606 348.443 43.9201 347.86 43.9201C347.197 43.9201 346.729 43.7208 346.465 43.322C346.201 42.9233 346.121 42.3651 346.225 41.6474L349.455 21.1128L350.452 21.1925L330.396 43.0031C330.182 43.2174 329.922 43.4367 329.618 43.6609C329.309 43.8902 328.881 43.9999 328.322 43.9999Z" fill="white"/>
<path d="M358.746 43.641C357.973 43.641 357.41 43.4367 357.051 43.023C356.692 42.6093 356.568 42.0212 356.672 41.2486L360.46 17.5641C360.565 16.8713 360.819 16.3629 361.218 16.0289C361.616 15.695 362.15 15.5305 362.813 15.5305H377.247C377.805 15.5305 378.239 15.6452 378.543 15.8695C378.847 16.0938 379.001 16.4227 379.001 16.8463C379.001 17.5092 378.822 18.0176 378.463 18.3615C378.104 18.7054 377.63 18.8799 377.047 18.8799H364.208L362.813 27.6918H374.495C375.054 27.6918 375.477 27.8064 375.771 28.0307C376.065 28.255 376.21 28.594 376.21 29.0475C376.21 29.6855 376.031 30.1789 375.672 30.5228C375.313 30.8667 374.839 31.0412 374.256 31.0412H362.294L360.779 40.2917H373.299C373.857 40.2917 374.291 40.4063 374.595 40.6306C374.899 40.8549 375.054 41.1938 375.054 41.6474C375.054 42.2853 374.874 42.7788 374.515 43.1227C374.157 43.4666 373.683 43.641 373.1 43.641H358.746Z" fill="white"/>
<path d="M381.872 43.9201C381.179 43.9201 380.691 43.7058 380.397 43.2822C380.103 42.8585 380.013 42.2604 380.118 41.4879L383.985 17.2849C384.09 16.6221 384.329 16.1137 384.703 15.7698C385.077 15.4259 385.605 15.2514 386.298 15.2514C386.991 15.2514 387.479 15.4657 387.773 15.8894C388.067 16.313 388.147 16.9111 388.012 17.6837L386.417 27.6519H402.207L403.842 17.2849C403.947 16.6221 404.186 16.1137 404.56 15.7698C404.933 15.4259 405.462 15.2514 406.155 15.2514C406.847 15.2514 407.336 15.4558 407.63 15.8695C407.924 16.2832 408.004 16.8862 407.869 17.6837L404.041 41.8467C403.962 42.5096 403.737 43.023 403.363 43.3818C402.99 43.7407 402.461 43.9201 401.769 43.9201C401.051 43.9201 400.547 43.7058 400.253 43.2822C399.959 42.8585 399.88 42.2604 400.014 41.4879L401.649 31.1209H385.899L384.185 41.8467C384.08 42.5096 383.841 43.023 383.467 43.3818C383.093 43.7407 382.56 43.9201 381.872 43.9201Z" fill="white"/>
<path d="M419.313 43.9201C418.65 43.9201 418.161 43.7058 417.857 43.2822C417.553 42.8585 417.454 42.2704 417.558 41.5278L421.107 18.9995H413.013C412.43 18.9995 411.971 18.8749 411.637 18.6207C411.303 18.3665 411.139 18.0176 411.139 17.5641C411.139 16.9261 411.333 16.4277 411.717 16.0688C412.101 15.71 412.599 15.5305 413.212 15.5305H433.906C434.519 15.5305 434.983 15.6502 435.302 15.8894C435.621 16.1286 435.78 16.4725 435.78 16.9261C435.78 17.589 435.596 18.1023 435.222 18.4612C434.848 18.8201 434.345 18.9995 433.707 18.9995H425.254L421.625 41.8866C421.521 42.5495 421.271 43.0579 420.888 43.4018C420.499 43.7507 419.976 43.9201 419.313 43.9201Z" fill="white"/>
<path d="M29.2771 55.626L9.99744 44.214C8.78702 43.5466 8.18182 42.3942 8.18182 40.7652C8.18182 39.9734 8.33519 39.3019 8.64608 38.7589C8.95698 38.2158 9.40467 37.7764 9.99744 37.4407L29.2771 25.9665C29.7124 25.7137 30.1062 25.6639 30.4627 25.809C30.8192 25.9541 31.1052 26.2152 31.3249 26.5925C31.5404 26.9697 31.6648 27.4091 31.698 27.9107C31.727 28.4123 31.6607 28.8848 31.4866 29.3201C31.3166 29.7595 30.9974 30.1035 30.5331 30.3564L9.9477 42.3943V39.2604L30.5331 51.2983C30.9974 51.5512 31.3166 51.8952 31.4866 52.3346C31.6565 52.774 31.727 53.2342 31.698 53.715C31.6648 54.1959 31.5404 54.6353 31.3249 55.0332C31.1093 55.4312 30.8192 55.6923 30.4627 55.8166C30.1103 55.941 29.7124 55.8788 29.2771 55.626Z" fill="#5286F8"/>
<path d="M1.24187 32.2939C0.88538 32.1696 0.599355 31.9084 0.379656 31.5105C0.164101 31.1125 0.0397424 30.6731 0.00658019 30.1923C-0.0224367 29.7114 0.0438886 29.2513 0.21799 28.8119C0.387946 28.3725 0.707131 28.0284 1.1714 27.7756L21.7568 15.7377V18.8715L1.1714 6.83366C0.707131 6.5808 0.387946 6.23674 0.21799 5.79734C0.0480338 5.35794 -0.0224367 4.88952 0.00658019 4.38794C0.0397424 3.88636 0.164101 3.44696 0.379656 3.06974C0.59521 2.69252 0.88538 2.43138 1.24187 2.28629C1.59837 2.14121 1.99631 2.19094 2.42742 2.4438L21.7071 13.9179C22.2957 14.2537 22.7476 14.6931 23.0585 15.2361C23.3694 15.7791 23.5227 16.4507 23.5227 17.2424C23.5227 18.8715 22.9175 20.0239 21.7071 20.6913L2.42742 32.1032C1.99217 32.3561 1.59837 32.4183 1.24187 32.2939Z" fill="#5286F8"/>
</svg>
