<?xml version="1.0" encoding="utf-8"?>
<!-- Generator: Adobe Illustrator 26.2.1, SVG Export Plug-In . SVG Version: 6.00 Build 0)  -->
<svg version="1.1" id="Слой_1" xmlns="http://www.w3.org/2000/svg" xmlns:xlink="http://www.w3.org/1999/xlink" x="0px" y="0px"
	 viewBox="0 0 497.45 253.44" style="enable-background:new 0 0 497.45 253.44;" xml:space="preserve">
<style type="text/css">
	.st0{fill:#FFFFFF;}
	.st1{fill:#5286F8;stroke:#5286F8;stroke-width:4;stroke-miterlimit:10;}
	.st2{fill:#5286F8;stroke:#5286F8;stroke-width:3;stroke-miterlimit:10;}
</style>
<g>
	<path d="M209.4,103.58c-7.64,0-14.39-1.43-20.25-4.3c-5.86-2.87-10.45-7.23-13.77-13.08c-3.32-5.86-4.98-13.27-4.98-22.24
		c0-7.14,1.06-13.77,3.18-19.87c2.12-6.11,5.15-11.44,9.1-16.01c3.94-4.57,8.8-8.14,14.58-10.72c5.77-2.57,12.27-3.86,19.5-3.86
		c4.98,0,9.72,0.71,14.2,2.12c4.49,1.41,8.39,3.45,11.71,6.11c1.25,0.92,2.01,1.97,2.31,3.18c0.29,1.21,0.25,2.39-0.12,3.55
		c-0.37,1.16-0.96,2.14-1.74,2.93c-0.79,0.79-1.75,1.25-2.87,1.37c-1.12,0.12-2.26-0.19-3.43-0.93c-3.24-2.49-6.52-4.26-9.84-5.3
		c-3.32-1.04-6.9-1.56-10.72-1.56c-6.73,0-12.5,1.68-17.32,5.05c-4.82,3.36-8.49,7.98-11.03,13.83c-2.53,5.86-3.8,12.48-3.8,19.87
		c0,6.73,1.04,12.17,3.12,16.32c2.08,4.15,5.09,7.21,9.03,9.16c3.94,1.95,8.74,2.93,14.39,2.93c3.49,0,6.77-0.48,9.84-1.43
		c3.07-0.95,6.19-2.55,9.35-4.8c1.33-0.83,2.57-1.18,3.74-1.06c1.16,0.12,2.14,0.58,2.93,1.37c0.79,0.79,1.31,1.74,1.56,2.86
		c0.25,1.12,0.17,2.26-0.25,3.43c-0.42,1.16-1.25,2.16-2.49,2.99c-3.74,2.74-7.85,4.78-12.34,6.11
		C218.49,102.92,213.96,103.58,209.4,103.58z"/>
	<path d="M280.92,103.58c-3.66,0-7.27-0.25-10.84-0.75c-3.57-0.5-7.02-1.35-10.34-2.55c-3.32-1.2-6.4-2.76-9.22-4.67
		c-1.25-0.75-2.1-1.7-2.55-2.87c-0.46-1.16-0.56-2.3-0.31-3.43c0.25-1.12,0.75-2.1,1.5-2.93c0.75-0.83,1.72-1.33,2.93-1.49
		c1.2-0.17,2.51,0.17,3.93,1c3.99,2.49,8.16,4.24,12.52,5.23c4.36,1,8.87,1.49,13.52,1.49c6.23,0,11.23-1.27,15.01-3.8
		c3.78-2.53,5.67-5.96,5.67-10.28c0-3.07-1.12-5.69-3.36-7.85c-2.24-2.16-6.11-3.82-11.59-4.98l-13.21-3.24
		c-5.9-1.41-10.61-3.88-14.14-7.41c-3.53-3.53-5.3-8.41-5.3-14.64c0-4.15,0.87-7.89,2.62-11.21c1.74-3.32,4.19-6.17,7.35-8.54
		c3.16-2.37,6.77-4.15,10.84-5.36c4.07-1.2,8.39-1.81,12.96-1.81c4.65,0,9.49,0.64,14.52,1.93c5.03,1.29,9.49,3.43,13.4,6.42
		c1.16,0.83,1.93,1.83,2.3,2.99c0.37,1.16,0.44,2.31,0.19,3.43c-0.25,1.12-0.75,2.04-1.5,2.74c-0.75,0.71-1.73,1.1-2.93,1.18
		c-1.21,0.08-2.64-0.37-4.3-1.37c-3.07-2.16-6.54-3.76-10.4-4.8c-3.86-1.04-7.71-1.56-11.53-1.56c-3.99,0-7.54,0.62-10.65,1.87
		c-3.12,1.25-5.57,2.97-7.35,5.17c-1.79,2.2-2.68,4.84-2.68,7.91c0,3.74,1,6.52,2.99,8.35c1.99,1.83,4.94,3.24,8.85,4.24l13.21,3.24
		c7.64,1.74,13.31,4.49,17.01,8.22c3.69,3.74,5.54,8.27,5.54,13.58c0,4.4-0.91,8.27-2.74,11.59c-1.83,3.32-4.34,6.09-7.54,8.29
		c-3.2,2.2-6.88,3.86-11.03,4.98C290.1,103.02,285.65,103.58,280.92,103.58z"/>
	<path d="M333.25,103.33c-2.24,0-3.82-0.67-4.73-1.99c-0.92-1.33-1.21-3.2-0.87-5.61l12.09-75.63c0.33-2.08,1.08-3.65,2.24-4.73
		c1.16-1.08,2.82-1.62,4.98-1.62c2.16,0,3.69,0.64,4.61,1.93c0.91,1.29,1.16,3.18,0.75,5.67l-11.96,75.51
		c-0.33,2.08-1.06,3.68-2.18,4.8C337.05,102.77,335.41,103.33,333.25,103.33z"/>
	<path d="M387.95,103.33c-2.08,0-3.59-0.67-4.55-1.99c-0.96-1.33-1.27-3.16-0.93-5.48l11.09-70.4h-25.29c-1.83,0-3.26-0.39-4.3-1.18
		c-1.04-0.79-1.56-1.89-1.56-3.3c0-1.99,0.6-3.55,1.81-4.67c1.2-1.12,2.76-1.68,4.67-1.68h64.67c1.91,0,3.36,0.37,4.36,1.12
		c1,0.75,1.49,1.83,1.49,3.24c0,2.08-0.58,3.68-1.74,4.8c-1.16,1.12-2.74,1.68-4.73,1.68h-26.42l-11.34,71.52
		c-0.33,2.08-1.1,3.66-2.3,4.74C391.67,102.79,390.03,103.33,387.95,103.33z"/>
</g>
<rect y="159.16" width="497.45" height="94.28"/>
<g>
	<path class="st0" d="M30.82,229.73c-0.78,0-1.45-0.19-1.99-0.56c-0.55-0.37-0.87-0.87-0.98-1.5c-0.11-0.63,0.05-1.34,0.49-2.12
		l24.51-40.52c0.52-0.78,1.08-1.36,1.67-1.73c0.59-0.37,1.34-0.56,2.25-0.56c0.91,0,1.67,0.22,2.25,0.65
		c0.59,0.44,1.01,1.11,1.27,2.03l11.37,39.93c0.3,1,0.37,1.83,0.2,2.48c-0.17,0.65-0.51,1.13-1.01,1.44c-0.5,0.3-1.1,0.46-1.8,0.46
		c-0.96,0-1.71-0.25-2.25-0.75c-0.55-0.5-0.95-1.25-1.21-2.26l-2.68-10.13l2.29,1.44H37.75l2.94-1.31l-6.47,10.98
		c-0.35,0.7-0.81,1.21-1.37,1.54C32.28,229.56,31.61,229.73,30.82,229.73z M55.92,190.71l-13.46,23l-1.5-1.18h22.81l-1.63,1.24
		l-6.08-23.07H55.92z"/>
	<path class="st0" d="M82.77,229.27c-1.22,0-2.12-0.35-2.71-1.04c-0.59-0.7-0.8-1.66-0.62-2.88l6.21-38.82
		c0.17-1.13,0.59-1.97,1.24-2.52c0.65-0.54,1.52-0.82,2.61-0.82h24.18c0.96,0,1.69,0.19,2.19,0.56c0.5,0.37,0.75,0.93,0.75,1.67
		c0,1-0.28,1.8-0.85,2.39c-0.57,0.59-1.37,0.88-2.42,0.88h-21.5L89.57,203h11.89c4.92,0,8.63,1.1,11.11,3.3
		c2.48,2.2,3.73,5.06,3.73,8.59c0,4.7-1.46,8.28-4.38,10.72c-2.92,2.44-7.19,3.66-12.81,3.66H82.77z M86.24,223.78h13.14
		c3.44,0,6.02-0.72,7.74-2.16c1.72-1.44,2.58-3.57,2.58-6.4c0-2.26-0.74-3.95-2.22-5.06c-1.48-1.11-3.77-1.67-6.86-1.67H88.72
		L86.24,223.78z"/>
	<path class="st0" d="M125.05,229.86c-0.61,0-1.08-0.1-1.4-0.29c-0.33-0.2-0.56-0.46-0.69-0.78c-0.13-0.33-0.21-0.67-0.23-1.05
		c-0.02-0.37-0.01-0.73,0.03-1.08l6.47-40.78c0.17-1.09,0.57-1.88,1.18-2.39c0.61-0.5,1.39-0.75,2.35-0.75
		c1.09,0,1.85,0.33,2.29,0.98c0.43,0.65,0.57,1.55,0.39,2.68l-5.36,33.66l-1.63-0.13l32.8-35.55c0.35-0.39,0.79-0.76,1.34-1.11
		c0.54-0.35,1.25-0.52,2.12-0.52c0.83,0,1.42,0.16,1.76,0.49c0.35,0.33,0.54,0.72,0.59,1.18c0.04,0.46,0.02,0.95-0.07,1.47
		l-6.4,40.71c-0.13,1.04-0.51,1.83-1.14,2.35c-0.63,0.52-1.43,0.78-2.39,0.78c-1.09,0-1.85-0.33-2.29-0.98
		c-0.44-0.65-0.57-1.57-0.39-2.74l5.29-33.65l1.63,0.13l-32.87,35.75c-0.35,0.35-0.77,0.71-1.27,1.08
		C126.68,229.67,125.97,229.86,125.05,229.86z"/>
	<path class="st0" d="M185.57,229.73c-1.09,0-1.88-0.35-2.39-1.05c-0.5-0.7-0.66-1.66-0.49-2.88l5.82-36.92h-13.27
		c-0.96,0-1.71-0.21-2.25-0.62c-0.55-0.41-0.82-0.99-0.82-1.73c0-1.05,0.32-1.86,0.95-2.45c0.63-0.59,1.45-0.88,2.45-0.88h33.92
		c1,0,1.76,0.2,2.29,0.59c0.52,0.39,0.78,0.96,0.78,1.7c0,1.09-0.31,1.93-0.91,2.52c-0.61,0.59-1.44,0.88-2.48,0.88H195.3
		l-5.95,37.51c-0.17,1.09-0.58,1.92-1.21,2.48C187.52,229.44,186.66,229.73,185.57,229.73z"/>
	<path class="st0" d="M222.55,229.73c-0.83,0-1.51-0.21-2.06-0.62c-0.55-0.41-0.86-0.96-0.95-1.63c-0.09-0.67,0.13-1.4,0.65-2.19
		l7.45-11.17v2.35l-13.66-29.6c-0.35-0.78-0.45-1.48-0.29-2.09c0.15-0.61,0.52-1.1,1.11-1.47c0.59-0.37,1.27-0.56,2.06-0.56
		c1,0,1.72,0.28,2.16,0.85c0.44,0.57,0.85,1.24,1.24,2.03l11.31,24.7h-1.37l17.12-25.49c0.39-0.52,0.85-1,1.37-1.44
		c0.52-0.43,1.24-0.65,2.16-0.65c0.83,0,1.5,0.2,2.03,0.59c0.52,0.39,0.83,0.93,0.91,1.6c0.09,0.68-0.11,1.38-0.59,2.12
		l-27.12,40.52c-0.39,0.57-0.85,1.07-1.37,1.5C224.19,229.51,223.47,229.73,222.55,229.73z"/>
	<path class="st0" d="M256.86,229.73c-1.09,0-1.88-0.35-2.39-1.05c-0.5-0.7-0.69-1.66-0.56-2.88l6.27-39.27
		c0.17-1.13,0.59-1.97,1.24-2.52c0.65-0.54,1.52-0.82,2.61-0.82h13.85c4.88,0,8.63,1.07,11.24,3.2c2.61,2.14,3.92,5.27,3.92,9.41
		c0,4.79-1.5,8.58-4.51,11.37c-3.01,2.79-7.38,4.18-13.13,4.18h-12.48l-2.35,15.03c-0.17,1.13-0.57,1.97-1.18,2.52
		C258.8,229.45,257.95,229.73,256.86,229.73z M263.85,205.94h11.96c3.49,0,6.13-0.83,7.94-2.48c1.81-1.66,2.71-4.05,2.71-7.19
		c0-2.61-0.77-4.54-2.32-5.78c-1.55-1.24-3.87-1.86-6.96-1.86H266.6L263.85,205.94z"/>
	<path class="st0" d="M298.03,229.86c-0.61,0-1.08-0.1-1.4-0.29c-0.33-0.2-0.56-0.46-0.69-0.78c-0.13-0.33-0.21-0.67-0.23-1.05
		c-0.02-0.37-0.01-0.73,0.03-1.08l6.47-40.78c0.17-1.09,0.57-1.88,1.18-2.39c0.61-0.5,1.39-0.75,2.35-0.75
		c1.09,0,1.85,0.33,2.29,0.98c0.43,0.65,0.57,1.55,0.39,2.68l-5.36,33.66l-1.63-0.13l32.81-35.55c0.35-0.39,0.79-0.76,1.34-1.11
		c0.54-0.35,1.25-0.52,2.12-0.52c0.83,0,1.42,0.16,1.76,0.49s0.54,0.72,0.59,1.18c0.04,0.46,0.02,0.95-0.07,1.47l-6.4,40.71
		c-0.13,1.04-0.51,1.83-1.14,2.35c-0.63,0.52-1.43,0.78-2.39,0.78c-1.09,0-1.85-0.33-2.29-0.98c-0.44-0.65-0.57-1.57-0.39-2.74
		l5.29-33.65l1.63,0.13l-32.87,35.75c-0.35,0.35-0.77,0.71-1.27,1.08C299.65,229.67,298.94,229.86,298.03,229.86z"/>
	<path class="st0" d="M347.89,229.27c-1.26,0-2.19-0.34-2.78-1.01c-0.59-0.67-0.8-1.64-0.62-2.91l6.21-38.82
		c0.17-1.13,0.59-1.97,1.24-2.52c0.65-0.54,1.52-0.82,2.61-0.82h23.66c0.91,0,1.62,0.19,2.12,0.56c0.5,0.37,0.75,0.9,0.75,1.6
		c0,1.09-0.29,1.92-0.88,2.48c-0.59,0.57-1.36,0.85-2.32,0.85h-21.04l-2.29,14.44h19.15c0.91,0,1.61,0.19,2.09,0.56
		c0.48,0.37,0.72,0.93,0.72,1.67c0,1.05-0.29,1.85-0.88,2.42c-0.59,0.57-1.36,0.85-2.32,0.85h-19.6l-2.48,15.16h20.52
		c0.91,0,1.62,0.19,2.12,0.56c0.5,0.37,0.75,0.93,0.75,1.67c0,1.05-0.29,1.85-0.88,2.42c-0.59,0.57-1.36,0.85-2.32,0.85H347.89z"/>
	<path class="st0" d="M385.79,229.73c-1.13,0-1.94-0.35-2.42-1.05c-0.48-0.7-0.63-1.68-0.46-2.94l6.34-39.67
		c0.17-1.09,0.57-1.92,1.18-2.48c0.61-0.57,1.48-0.85,2.61-0.85c1.13,0,1.94,0.35,2.42,1.05c0.48,0.7,0.61,1.68,0.39,2.94
		l-2.61,16.34h25.88l2.68-16.99c0.17-1.09,0.57-1.92,1.18-2.48c0.61-0.57,1.48-0.85,2.61-0.85c1.13,0,1.94,0.34,2.42,1.01
		c0.48,0.68,0.61,1.67,0.39,2.97l-6.27,39.6c-0.13,1.09-0.5,1.93-1.11,2.52c-0.61,0.59-1.48,0.88-2.61,0.88
		c-1.18,0-2-0.35-2.48-1.05c-0.48-0.7-0.61-1.68-0.39-2.94l2.68-16.99h-25.81l-2.81,17.58c-0.17,1.09-0.57,1.93-1.18,2.52
		C387.8,229.43,386.92,229.73,385.79,229.73z"/>
	<path class="st0" d="M447.15,229.73c-1.09,0-1.88-0.35-2.39-1.05c-0.5-0.7-0.66-1.66-0.49-2.88l5.82-36.92h-13.27
		c-0.96,0-1.71-0.21-2.25-0.62c-0.55-0.41-0.82-0.99-0.82-1.73c0-1.05,0.32-1.86,0.95-2.45c0.63-0.59,1.45-0.88,2.45-0.88h33.92
		c1,0,1.76,0.2,2.29,0.59c0.52,0.39,0.78,0.96,0.78,1.7c0,1.09-0.31,1.93-0.91,2.52c-0.61,0.59-1.44,0.88-2.48,0.88h-13.85
		l-5.95,37.51c-0.17,1.09-0.58,1.92-1.21,2.48C449.1,229.44,448.24,229.73,447.15,229.73z"/>
</g>
<g>
	<path class="st1" d="M105.08,39.9L58.03,69.27v-8.52l39.95-24.19v-0.25L58.03,12.13V3.62l47.05,29.37V39.9z"/>
</g>
<g>
	<path class="st2" d="M81.56,89.23l46.5-29.97l0.07,8.58L88.64,92.53l0,0.25l39.89,24.03l0.07,8.58l-46.99-29.2L81.56,89.23z"/>
</g>
</svg>
