<?xml version="1.0" encoding="utf-8"?>
<!-- Generator: Adobe Illustrator 26.2.1, SVG Export Plug-In . SVG Version: 6.00 Build 0)  -->
<svg version="1.1" id="Слой_1" xmlns="http://www.w3.org/2000/svg" xmlns:xlink="http://www.w3.org/1999/xlink" x="0px" y="0px"
	 viewBox="0 0 903.65 127.72" style="enable-background:new 0 0 903.65 127.72;" xml:space="preserve">
<style type="text/css">
	.st0{fill:#FFFFFF;}
	.st1{fill:#5286F8;stroke:#5286F8;stroke-width:4;stroke-miterlimit:10;}
	.st2{fill:#5286F8;stroke:#5286F8;stroke-width:3;stroke-miterlimit:10;}
</style>
<g>
	<path d="M113.32,89.86c-5.21,0-9.82-0.98-13.81-2.93s-7.13-4.93-9.39-8.92c-2.27-4-3.4-9.05-3.4-15.17c0-4.87,0.72-9.39,2.17-13.56
		c1.44-4.17,3.51-7.81,6.21-10.92c2.69-3.12,6.01-5.55,9.94-7.31c3.94-1.76,8.37-2.63,13.3-2.63c3.4,0,6.63,0.48,9.69,1.44
		c3.06,0.96,5.72,2.35,7.99,4.17c0.85,0.62,1.37,1.35,1.57,2.17c0.2,0.82,0.17,1.63-0.08,2.42c-0.26,0.79-0.65,1.46-1.19,2
		c-0.54,0.54-1.19,0.85-1.96,0.94c-0.77,0.08-1.54-0.13-2.34-0.64c-2.21-1.7-4.45-2.9-6.72-3.61c-2.27-0.71-4.7-1.06-7.31-1.06
		c-4.59,0-8.53,1.15-11.81,3.44c-3.29,2.3-5.79,5.44-7.52,9.44c-1.73,4-2.59,8.51-2.59,13.56c0,4.59,0.71,8.3,2.12,11.13
		c1.42,2.83,3.47,4.92,6.16,6.25c2.69,1.33,5.96,2,9.82,2c2.38,0,4.62-0.33,6.71-0.98c2.1-0.65,4.22-1.74,6.38-3.27
		c0.91-0.57,1.76-0.81,2.55-0.72c0.79,0.08,1.46,0.4,2,0.94c0.54,0.54,0.89,1.19,1.06,1.95c0.17,0.77,0.11,1.54-0.17,2.34
		c-0.28,0.79-0.85,1.47-1.7,2.04c-2.55,1.87-5.35,3.26-8.42,4.17C119.52,89.41,116.43,89.86,113.32,89.86z"/>
	<path d="M162.11,89.86c-2.49,0-4.96-0.17-7.4-0.51c-2.44-0.34-4.79-0.92-7.06-1.74c-2.27-0.82-4.36-1.88-6.29-3.19
		c-0.85-0.51-1.43-1.16-1.74-1.96c-0.31-0.79-0.38-1.57-0.21-2.34c0.17-0.77,0.51-1.43,1.02-2c0.51-0.57,1.18-0.91,2-1.02
		c0.82-0.11,1.71,0.11,2.68,0.68c2.72,1.7,5.57,2.89,8.54,3.57c2.98,0.68,6.05,1.02,9.22,1.02c4.25,0,7.66-0.86,10.24-2.59
		c2.58-1.73,3.87-4.07,3.87-7.01c0-2.1-0.77-3.88-2.29-5.36c-1.53-1.47-4.17-2.61-7.91-3.4l-9.01-2.21
		c-4.02-0.96-7.24-2.65-9.65-5.06c-2.41-2.41-3.61-5.74-3.61-9.99c0-2.83,0.6-5.38,1.79-7.65c1.19-2.27,2.86-4.21,5.02-5.82
		c2.15-1.61,4.62-2.83,7.4-3.65c2.78-0.82,5.72-1.23,8.84-1.23c3.17,0,6.47,0.44,9.9,1.32c3.43,0.88,6.47,2.34,9.14,4.38
		c0.79,0.57,1.32,1.25,1.57,2.04c0.26,0.79,0.3,1.57,0.13,2.34c-0.17,0.77-0.51,1.39-1.02,1.87c-0.51,0.48-1.18,0.75-2,0.81
		c-0.82,0.06-1.8-0.25-2.93-0.94c-2.1-1.47-4.46-2.56-7.1-3.27c-2.63-0.71-5.26-1.06-7.86-1.06c-2.72,0-5.14,0.42-7.27,1.27
		s-3.8,2.03-5.02,3.53c-1.22,1.5-1.83,3.3-1.83,5.4c0,2.55,0.68,4.45,2.04,5.69c1.36,1.25,3.37,2.21,6.03,2.89l9.01,2.21
		c5.21,1.19,9.08,3.06,11.6,5.61c2.52,2.55,3.78,5.64,3.78,9.26c0,3-0.62,5.64-1.87,7.91c-1.25,2.27-2.96,4.15-5.14,5.65
		c-2.18,1.5-4.69,2.63-7.52,3.4C168.37,89.48,165.34,89.86,162.11,89.86z"/>
	<path d="M197.81,89.69c-1.53,0-2.61-0.46-3.23-1.36c-0.62-0.91-0.82-2.18-0.6-3.83l8.25-51.59c0.23-1.42,0.74-2.49,1.53-3.23
		c0.79-0.74,1.93-1.1,3.4-1.1c1.47,0,2.52,0.44,3.15,1.32c0.62,0.88,0.79,2.17,0.51,3.87l-8.16,51.51
		c-0.23,1.42-0.72,2.51-1.49,3.27C200.4,89.31,199.28,89.69,197.81,89.69z"/>
	<path d="M235.12,89.69c-1.42,0-2.45-0.46-3.1-1.36c-0.65-0.91-0.86-2.15-0.64-3.74l7.56-48.02h-17.25c-1.25,0-2.22-0.27-2.93-0.81
		c-0.71-0.54-1.06-1.29-1.06-2.25c0-1.36,0.41-2.42,1.23-3.19c0.82-0.77,1.88-1.15,3.19-1.15h44.12c1.3,0,2.29,0.25,2.98,0.76
		c0.68,0.51,1.02,1.25,1.02,2.21c0,1.42-0.4,2.51-1.19,3.27c-0.79,0.77-1.87,1.15-3.23,1.15h-18.02l-7.73,48.79
		c-0.23,1.42-0.75,2.5-1.57,3.23C237.66,89.32,236.54,89.69,235.12,89.69z"/>
</g>
<rect x="294.66" width="608.98" height="115.42"/>
<g>
	<path class="st0" d="M329.64,86.39c-0.96,0-1.77-0.23-2.44-0.68c-0.67-0.45-1.07-1.07-1.2-1.84c-0.13-0.77,0.07-1.64,0.6-2.6
		l30-49.6c0.64-0.96,1.32-1.67,2.04-2.12c0.72-0.45,1.64-0.68,2.76-0.68c1.12,0,2.04,0.27,2.76,0.8c0.72,0.53,1.24,1.36,1.56,2.48
		l13.92,48.88c0.37,1.23,0.45,2.24,0.24,3.04c-0.21,0.8-0.63,1.39-1.24,1.76c-0.61,0.37-1.35,0.56-2.2,0.56
		c-1.17,0-2.09-0.31-2.76-0.92c-0.67-0.61-1.16-1.53-1.48-2.76l-3.28-12.4l2.8,1.76h-33.6l3.6-1.6l-7.92,13.44
		c-0.43,0.85-0.99,1.48-1.68,1.88C331.42,86.19,330.6,86.39,329.64,86.39z M360.36,38.63l-16.48,28.16l-1.84-1.44h27.92l-2,1.52
		l-7.44-28.24H360.36z"/>
	<path class="st0" d="M393.24,85.83c-1.49,0-2.6-0.43-3.32-1.28c-0.72-0.85-0.97-2.03-0.76-3.52l7.6-47.52
		c0.21-1.39,0.72-2.41,1.52-3.08c0.8-0.67,1.87-1,3.2-1h29.6c1.17,0,2.07,0.23,2.68,0.68c0.61,0.45,0.92,1.13,0.92,2.04
		c0,1.23-0.35,2.2-1.04,2.92c-0.69,0.72-1.68,1.08-2.96,1.08h-26.32l-2.8,17.52h14.56c6.03,0,10.56,1.35,13.6,4.04
		c3.04,2.69,4.56,6.2,4.56,10.52c0,5.76-1.79,10.13-5.36,13.12c-3.57,2.99-8.8,4.48-15.68,4.48H393.24z M397.48,79.11h16.08
		c4.21,0,7.37-0.88,9.48-2.64c2.11-1.76,3.16-4.37,3.16-7.84c0-2.77-0.91-4.84-2.72-6.2c-1.81-1.36-4.61-2.04-8.4-2.04h-14.56
		L397.48,79.11z"/>
	<path class="st0" d="M445,86.55c-0.75,0-1.32-0.12-1.72-0.36c-0.4-0.24-0.68-0.56-0.84-0.96c-0.16-0.4-0.25-0.83-0.28-1.28
		c-0.03-0.45-0.01-0.89,0.04-1.32l7.92-49.92c0.21-1.33,0.69-2.31,1.44-2.92c0.75-0.61,1.71-0.92,2.88-0.92c1.33,0,2.27,0.4,2.8,1.2
		c0.53,0.8,0.69,1.89,0.48,3.28l-6.56,41.2l-2-0.16l40.16-43.52c0.43-0.48,0.97-0.93,1.64-1.36c0.67-0.43,1.53-0.64,2.6-0.64
		c1.01,0,1.73,0.2,2.16,0.6c0.43,0.4,0.67,0.88,0.72,1.44c0.05,0.56,0.03,1.16-0.08,1.8l-7.84,49.84c-0.16,1.28-0.63,2.24-1.4,2.88
		c-0.77,0.64-1.75,0.96-2.92,0.96c-1.33,0-2.27-0.4-2.8-1.2c-0.53-0.8-0.69-1.92-0.48-3.36l6.48-41.2l2,0.16l-40.24,43.76
		c-0.43,0.43-0.95,0.87-1.56,1.32C446.98,86.32,446.12,86.55,445,86.55z"/>
	<path class="st0" d="M519.08,86.39c-1.33,0-2.31-0.43-2.92-1.28s-0.81-2.03-0.6-3.52l7.12-45.2h-16.24c-1.17,0-2.09-0.25-2.76-0.76
		c-0.67-0.51-1-1.21-1-2.12c0-1.28,0.39-2.28,1.16-3c0.77-0.72,1.77-1.08,3-1.08h41.52c1.23,0,2.16,0.24,2.8,0.72
		c0.64,0.48,0.96,1.17,0.96,2.08c0,1.33-0.37,2.36-1.12,3.08c-0.75,0.72-1.76,1.08-3.04,1.08H531l-7.28,45.92
		c-0.21,1.33-0.71,2.35-1.48,3.04C521.46,86.04,520.41,86.39,519.08,86.39z"/>
	<path class="st0" d="M564.35,86.39c-1.01,0-1.85-0.25-2.52-0.76c-0.67-0.51-1.05-1.17-1.16-2c-0.11-0.83,0.16-1.72,0.8-2.68
		l9.12-13.68v2.88l-16.72-36.24c-0.43-0.96-0.55-1.81-0.36-2.56c0.19-0.75,0.64-1.35,1.36-1.8c0.72-0.45,1.56-0.68,2.52-0.68
		c1.23,0,2.11,0.35,2.64,1.04c0.53,0.69,1.04,1.52,1.52,2.48l13.84,30.24h-1.68l20.96-31.2c0.48-0.64,1.04-1.23,1.68-1.76
		c0.64-0.53,1.52-0.8,2.64-0.8c1.01,0,1.84,0.24,2.48,0.72c0.64,0.48,1.01,1.13,1.12,1.96c0.11,0.83-0.13,1.69-0.72,2.6l-33.2,49.6
		c-0.48,0.69-1.04,1.31-1.68,1.84C566.35,86.12,565.47,86.39,564.35,86.39z"/>
	<path class="st0" d="M606.35,86.39c-1.33,0-2.31-0.43-2.92-1.28c-0.61-0.85-0.84-2.03-0.68-3.52l7.68-48.08
		c0.21-1.39,0.72-2.41,1.52-3.08c0.8-0.67,1.87-1,3.2-1h16.96c5.97,0,10.56,1.31,13.76,3.92c3.2,2.61,4.8,6.45,4.8,11.52
		c0,5.87-1.84,10.51-5.52,13.92c-3.68,3.41-9.04,5.12-16.08,5.12h-15.28l-2.88,18.4c-0.21,1.39-0.69,2.41-1.44,3.08
		C608.73,86.06,607.69,86.39,606.35,86.39z M614.91,57.27h14.64c4.27,0,7.51-1.01,9.72-3.04c2.21-2.03,3.32-4.96,3.32-8.8
		c0-3.2-0.95-5.56-2.84-7.08c-1.89-1.52-4.73-2.28-8.52-2.28h-12.96L614.91,57.27z"/>
	<path class="st0" d="M656.75,86.55c-0.75,0-1.32-0.12-1.72-0.36s-0.68-0.56-0.84-0.96c-0.16-0.4-0.25-0.83-0.28-1.28
		c-0.03-0.45-0.01-0.89,0.04-1.32l7.92-49.92c0.21-1.33,0.69-2.31,1.44-2.92c0.75-0.61,1.71-0.92,2.88-0.92c1.33,0,2.27,0.4,2.8,1.2
		c0.53,0.8,0.69,1.89,0.48,3.28l-6.56,41.2l-2-0.16l40.16-43.52c0.43-0.48,0.97-0.93,1.64-1.36c0.67-0.43,1.53-0.64,2.6-0.64
		c1.01,0,1.73,0.2,2.16,0.6s0.67,0.88,0.72,1.44c0.05,0.56,0.03,1.16-0.08,1.8l-7.84,49.84c-0.16,1.28-0.63,2.24-1.4,2.88
		c-0.77,0.64-1.75,0.96-2.92,0.96c-1.33,0-2.27-0.4-2.8-1.2c-0.53-0.8-0.69-1.92-0.48-3.36l6.48-41.2l2,0.16l-40.24,43.76
		c-0.43,0.43-0.95,0.87-1.56,1.32C658.74,86.32,657.87,86.55,656.75,86.55z"/>
	<path class="st0" d="M717.79,85.83c-1.55,0-2.68-0.41-3.4-1.24c-0.72-0.83-0.97-2.01-0.76-3.56l7.6-47.52
		c0.21-1.39,0.72-2.41,1.52-3.08c0.8-0.67,1.87-1,3.2-1h28.96c1.12,0,1.99,0.23,2.6,0.68c0.61,0.45,0.92,1.11,0.92,1.96
		c0,1.33-0.36,2.35-1.08,3.04c-0.72,0.69-1.67,1.04-2.84,1.04h-25.76l-2.8,17.68h23.44c1.12,0,1.97,0.23,2.56,0.68
		c0.59,0.45,0.88,1.13,0.88,2.04c0,1.28-0.36,2.27-1.08,2.96c-0.72,0.69-1.67,1.04-2.84,1.04h-24l-3.04,18.56h25.12
		c1.12,0,1.99,0.23,2.6,0.68c0.61,0.45,0.92,1.13,0.92,2.04c0,1.28-0.36,2.27-1.08,2.96c-0.72,0.69-1.67,1.04-2.84,1.04H717.79z"/>
	<path class="st0" d="M764.19,86.39c-1.39,0-2.37-0.43-2.96-1.28s-0.77-2.05-0.56-3.6l7.76-48.56c0.21-1.33,0.69-2.35,1.44-3.04
		c0.75-0.69,1.81-1.04,3.2-1.04s2.37,0.43,2.96,1.28c0.59,0.85,0.75,2.05,0.48,3.6l-3.2,20h31.68l3.28-20.8
		c0.21-1.33,0.69-2.35,1.44-3.04c0.75-0.69,1.81-1.04,3.2-1.04c1.39,0,2.37,0.41,2.96,1.24c0.59,0.83,0.75,2.04,0.48,3.64
		l-7.68,48.48c-0.16,1.33-0.61,2.36-1.36,3.08c-0.75,0.72-1.81,1.08-3.2,1.08c-1.44,0-2.45-0.43-3.04-1.28s-0.75-2.05-0.48-3.6
		l3.28-20.8h-31.6l-3.44,21.52c-0.21,1.33-0.69,2.36-1.44,3.08C766.65,86.03,765.58,86.39,764.19,86.39z"/>
	<path class="st0" d="M839.31,86.39c-1.33,0-2.31-0.43-2.92-1.28s-0.81-2.03-0.6-3.52l7.12-45.2h-16.24c-1.17,0-2.09-0.25-2.76-0.76
		c-0.67-0.51-1-1.21-1-2.12c0-1.28,0.39-2.28,1.16-3c0.77-0.72,1.77-1.08,3-1.08h41.52c1.23,0,2.16,0.24,2.8,0.72
		c0.64,0.48,0.96,1.17,0.96,2.08c0,1.33-0.37,2.36-1.12,3.08c-0.75,0.72-1.76,1.08-3.04,1.08h-16.96l-7.28,45.92
		c-0.21,1.33-0.71,2.35-1.48,3.04C841.7,86.04,840.64,86.39,839.31,86.39z"/>
</g>
<g>
	<path class="st1" d="M41.96,52.46L2.04,77.38v-7.23l33.9-20.52v-0.21L2.04,28.9v-7.23l39.92,24.92V52.46z"/>
</g>
<g>
	<path class="st2" d="M22,94.32l39.46-25.43l0.06,7.28L28.01,97.12l0,0.21l33.85,20.39l0.06,7.28l-39.87-24.77L22,94.32z"/>
</g>
</svg>
