<?xml version="1.0" encoding="utf-8"?>
<!-- Created by UniConvertor 2.0rc5 (https://sk1project.net/) -->
<svg xmlns="http://www.w3.org/2000/svg" height="233.0px" width="233.0px" version="1.1" xmlns:xlink="http://www.w3.org/1999/xlink" id="2d93b5f4-bd7a-11ec-bdf2-a8a1598cb569">

<g>
	<path style="fill:#010101;" d="M 0.0,0.0 L 0.0,233.0 233.0,233.0 233.0,0.0 0.0,0.0 Z" />
	<path style="fill:#8f8f8f;" d="M 25.0,25.0 L 26.0,26.0 25.0,25.0 Z" />
	<path style="fill:#bfbfbf;" d="M 25.0,69.0 L 26.0,69.0 26.0,26.0 69.0,26.0 C 60.4036,22.3928 46.3223,25.0 37.0,25.0 34.0196,25.0 28.1473,23.9272 26.0278,26.6034 23.9543,29.2214 25.0,34.8785 25.0,38.0 L 25.0,69.0 Z" />
	<path style="fill:#414141;" d="M 69.0,25.0 L 69.0,69.0 25.0,69.0 25.0,70.0 56.0,70.0 C 59.3281,70.0 65.6153,71.1751 68.3966,68.9722 71.0728,66.8526 70.0,60.9804 70.0,58.0 70.0,48.4152 72.7074,33.8352 69.0,25.0 Z" />
	<path style="fill:#616161;" d="M 75.0,25.0 C 75.0,33.1929 70.9548,50.6373 82.0,51.0 L 82.0,50.0 76.0,50.0 C 76.0,42.503 77.9071,31.9279 75.0,25.0 Z" />
	<path style="fill:#bfbfbf;" d="M 76.0,25.0 L 76.0,26.0 82.0,26.0 C 79.9479,25.1258 78.2528,25.0472 76.0,25.0 M 107.0,25.0 L 107.0,26.0 113.0,26.0 C 110.948,25.1258 109.253,25.0472 107.0,25.0 Z" />
	<path style="fill:#616161;" d="M 113.0,25.0 L 113.0,31.0 114.0,31.0 C 113.953,28.7472 113.874,27.0521 113.0,25.0 M 119.0,25.0 L 119.0,31.0 120.0,31.0 C 119.953,28.7472 119.874,27.0521 119.0,25.0 Z" />
	<path style="fill:#bfbfbf;" d="M 120.0,25.0 L 120.0,26.0 145.0,26.0 C 138.072,23.0929 127.497,25.0 120.0,25.0 M 151.0,25.0 L 151.0,26.0 157.0,26.0 C 154.948,25.1257 153.253,25.0472 151.0,25.0 Z" />
	<path style="fill:#616161;" d="M 157.0,25.0 L 157.0,31.0 158.0,31.0 C 157.953,28.7472 157.874,27.0521 157.0,25.0 Z" />
	<path style="fill:#414141;" d="M 163.0,25.0 L 163.0,56.0 C 163.0,59.3281 161.825,65.6153 164.028,68.3966 166.261,71.2163 172.849,70.0 176.0,70.0 L 208.0,70.0 208.0,69.0 164.0,69.0 C 164.0,56.5196 167.81,36.4634 163.0,25.0 Z" />
	<path style="fill:#bfbfbf;" d="M 164.0,25.0 L 164.0,26.0 207.0,26.0 207.0,69.0 C 210.607,60.4035 208.0,46.3223 208.0,37.0 208.0,34.0196 209.073,28.1473 206.397,26.0278 203.779,23.9543 198.122,25.0 195.0,25.0 L 164.0,25.0 Z" />
	<path style="fill:#8f8f8f;" d="M 207.0,25.0 L 208.0,26.0 207.0,25.0 Z" />
	<path style="fill:#ffffff;" d="M 26.0,26.0 L 26.0,69.0 69.0,69.0 69.0,26.0 26.0,26.0 M 76.0,26.0 L 76.0,50.0 82.0,50.0 82.0,57.0 76.0,57.0 76.0,69.0 81.0,69.0 81.0,63.0 89.0,63.0 89.0,81.0 94.0,81.0 94.0,45.0 88.0,45.0 88.0,38.0 81.0,38.0 81.0,26.0 76.0,26.0 Z" />
	<path style="fill:#dfdfdf;" d="M 81.0,26.0 L 81.0,38.0 82.0,38.0 C 82.0,34.0168 82.5515,29.6975 81.0,26.0 Z" />
	<path style="fill:#ffffff;" d="M 107.0,26.0 L 107.0,32.0 95.0,32.0 95.0,37.0 101.0,37.0 101.0,44.0 107.0,44.0 107.0,37.0 119.0,37.0 119.0,32.0 113.0,32.0 113.0,26.0 107.0,26.0 M 120.0,26.0 L 120.0,31.0 126.0,31.0 126.0,37.0 C 130.892,37.3732 132.627,39.1084 133.0,44.0 L 139.0,44.0 139.0,50.0 144.0,50.0 144.0,38.0 138.0,38.0 138.0,31.0 144.0,31.0 144.0,26.0 120.0,26.0 Z" />
	<path style="fill:#dfdfdf;" d="M 144.0,26.0 L 144.0,31.0 145.0,31.0 C 144.912,29.0359 144.779,27.769 144.0,26.0 M 151.0,26.0 L 151.0,31.0 152.0,31.0 C 151.912,29.0359 151.779,27.7691 151.0,26.0 Z" />
	<path style="fill:#ffffff;" d="M 152.0,26.0 L 152.0,31.0 157.0,31.0 157.0,26.0 152.0,26.0 M 164.0,26.0 L 164.0,69.0 207.0,69.0 207.0,26.0 164.0,26.0 Z" />
	<path style="fill:#bfbfbf;" d="M 31.0,31.0 L 32.0,32.0 31.0,31.0 Z" />
	<path style="fill:#818181;" d="M 31.0,63.0 L 32.0,63.0 32.0,32.0 63.0,32.0 C 56.355,29.2116 46.1837,30.9512 39.0,31.0008 36.484,31.0181 32.9281,30.6257 31.6034,33.3179 28.1186,40.4 31.0,55.1189 31.0,63.0 Z" />
	<path style="fill:#414141;" d="M 94.0,31.0 L 95.0,32.0 94.0,31.0 Z" />
	<path style="fill:#818181;" d="M 95.0,31.0 L 95.0,32.0 107.0,32.0 C 103.303,30.4485 98.9832,31.0 95.0,31.0 Z" />
	<path style="fill:#afafaf;" d="M 113.0,31.0 L 114.0,32.0 113.0,31.0 Z" />
	<path style="fill:#818181;" d="M 114.0,31.0 L 114.0,32.0 126.0,32.0 C 122.303,30.4485 117.983,31.0 114.0,31.0 Z" />
	<path style="fill:#bfbfbf;" d="M 138.0,31.0 L 139.0,32.0 138.0,31.0 Z" />
	<path style="fill:#818181;" d="M 138.0,38.0 L 139.0,38.0 139.0,32.0 157.0,32.0 C 150.154,29.1271 138.294,29.0416 138.0,38.0 Z" />
	<path style="fill:#313131;" d="M 157.0,31.0 L 158.0,32.0 157.0,31.0 Z" />
	<path style="fill:#818181;" d="M 170.0,31.0 L 170.0,32.0 201.0,32.0 201.0,63.0 C 203.788,56.355 202.049,46.1837 201.999,39.0 201.982,36.4839 202.374,32.9281 199.682,31.6034 192.6,28.1186 177.881,31.0 170.0,31.0 Z" />
	<path style="fill:#bfbfbf;" d="M 201.0,31.0 L 202.0,32.0 201.0,31.0 Z" />
	<path style="fill:#010101;" d="M 32.0,32.0 L 32.0,63.0 63.0,63.0 63.0,32.0 32.0,32.0 Z" />
	<path style="fill:#818181;" d="M 94.0,32.0 L 94.0,38.0 95.0,38.0 C 94.9528,35.7472 94.8742,34.0521 94.0,32.0 Z" />
	<path style="fill:#9f9f9f;" d="M 119.0,32.0 L 119.0,38.0 120.0,38.0 C 119.953,35.7472 119.874,34.0521 119.0,32.0 Z" />
	<path style="fill:#010101;" d="M 120.0,32.0 L 120.0,37.0 126.0,37.0 126.0,32.0 120.0,32.0 M 139.0,32.0 L 139.0,37.0 144.0,37.0 144.0,32.0 139.0,32.0 Z" />
	<path style="fill:#212121;" d="M 144.0,32.0 L 144.0,37.0 145.0,37.0 C 144.912,35.0359 144.779,33.769 144.0,32.0 Z" />
	<path style="fill:#ffffff;" d="M 145.0,32.0 L 145.0,37.0 151.0,37.0 151.0,32.0 145.0,32.0 Z" />
	<path style="fill:#212121;" d="M 151.0,32.0 L 151.0,37.0 152.0,37.0 C 151.912,35.0359 151.779,33.7691 151.0,32.0 Z" />
	<path style="fill:#010101;" d="M 170.0,32.0 L 170.0,63.0 201.0,63.0 201.0,32.0 170.0,32.0 Z" />
	<path style="fill:#414141;" d="M 37.0,56.0 L 38.0,56.0 38.0,38.0 57.0,38.0 C 53.3113,36.4521 39.7401,34.9755 37.6034,39.3179 35.5074,43.5775 37.0,51.3152 37.0,56.0 M 82.0,37.0 L 82.0,38.0 88.0,38.0 C 85.9479,37.1257 84.2528,37.0472 82.0,37.0 Z" />
	<path style="fill:#bfbfbf;" d="M 95.0,37.0 L 95.0,38.0 101.0,38.0 C 98.9479,37.1257 97.2528,37.0472 95.0,37.0 M 107.0,37.0 L 107.0,38.0 119.0,38.0 C 115.303,36.4485 110.983,37.0 107.0,37.0 Z" />
	<path style="fill:#414141;" d="M 120.0,37.0 L 120.0,38.0 126.0,38.0 C 123.948,37.1257 122.253,37.0472 120.0,37.0 Z" />
	<path style="fill:#bfbfbf;" d="M 126.0,37.0 L 126.0,38.0 132.0,38.0 132.0,44.0 C 134.096,38.8236 130.736,37.1555 126.0,37.0 Z" />
	<path style="fill:#414141;" d="M 139.0,37.0 L 139.0,38.0 145.0,38.0 C 142.948,37.1258 141.253,37.0472 139.0,37.0 Z" />
	<path style="fill:#bfbfbf;" d="M 145.0,37.0 L 145.0,38.0 151.0,38.0 C 148.948,37.1257 147.253,37.0472 145.0,37.0 Z" />
	<path style="fill:#414141;" d="M 151.0,37.0 L 151.0,38.0 158.0,38.0 C 155.668,37.0155 153.543,37.0187 151.0,37.0 M 177.0,37.0 L 177.0,38.0 195.0,38.0 195.0,57.0 C 196.548,53.3113 198.024,39.7401 193.682,37.6034 189.423,35.5074 181.685,37.0 177.0,37.0 Z" />
	<path style="fill:#ffffff;" d="M 38.0,38.0 L 38.0,56.0 56.0,56.0 56.0,38.0 38.0,38.0 Z" />
	<path style="fill:#9f9f9f;" d="M 56.0,38.0 L 56.0,56.0 38.0,56.0 38.0,57.0 C 42.6847,57.0 50.4225,58.4926 54.6821,56.3966 58.9594,54.2919 57.514,41.608 56.0,38.0 Z" />
	<path style="fill:#212121;" d="M 88.0,38.0 L 88.0,44.0 89.0,44.0 C 88.9528,41.7472 88.8742,40.0521 88.0,38.0 Z" />
	<path style="fill:#414141;" d="M 100.0,38.0 L 100.0,44.0 101.0,44.0 C 100.953,41.7472 100.874,40.0521 100.0,38.0 Z" />
	<path style="fill:#010101;" d="M 107.0,38.0 L 107.0,44.0 119.0,44.0 119.0,38.0 107.0,38.0 Z" />
	<path style="fill:#616161;" d="M 119.0,38.0 L 119.0,44.0 120.0,44.0 C 119.953,41.7472 119.874,40.0521 119.0,38.0 Z" />
	<path style="fill:#ffffff;" d="M 120.0,38.0 L 120.0,44.0 126.0,44.0 126.0,38.0 120.0,38.0 Z" />
	<path style="fill:#010101;" d="M 126.0,38.0 L 126.0,44.0 132.0,44.0 132.0,38.0 126.0,38.0 Z" />
	<path style="fill:#dfdfdf;" d="M 144.0,38.0 L 144.0,50.0 145.0,50.0 C 145.0,46.0168 145.552,41.6975 144.0,38.0 M 151.0,38.0 L 151.0,50.0 152.0,50.0 C 152.0,46.0168 152.552,41.6975 151.0,38.0 Z" />
	<path style="fill:#ffffff;" d="M 152.0,38.0 L 152.0,50.0 157.0,50.0 157.0,38.0 152.0,38.0 Z" />
	<path style="fill:#616161;" d="M 157.0,38.0 L 157.0,50.0 158.0,50.0 C 158.0,46.0168 158.552,41.6975 157.0,38.0 Z" />
	<path style="fill:#a1a1a1;" d="M 176.0,38.0 L 176.0,56.0 177.0,56.0 C 177.0,50.3678 178.191,43.2224 176.0,38.0 Z" />
	<path style="fill:#ffffff;" d="M 177.0,38.0 L 177.0,56.0 195.0,56.0 195.0,38.0 177.0,38.0 Z" />
	<path style="fill:#dfdfdf;" d="M 88.0,44.0 L 88.0,45.0 94.0,45.0 C 91.9479,44.1258 90.2528,44.0472 88.0,44.0 Z" />
	<path style="fill:#818181;" d="M 94.0,44.0 L 94.0,88.0 95.0,88.0 C 95.0,75.5196 98.8102,55.4634 94.0,44.0 Z" />
	<path style="fill:#212121;" d="M 101.0,44.0 L 101.0,45.0 107.0,45.0 C 104.948,44.1258 103.253,44.0472 101.0,44.0 Z" />
	<path style="fill:#dfdfdf;" d="M 107.0,44.0 L 107.0,45.0 119.0,45.0 C 115.303,43.4485 110.983,44.0 107.0,44.0 Z" />
	<path style="fill:#9f9f9f;" d="M 119.0,44.0 L 119.0,51.0 126.0,51.0 126.0,50.0 120.0,50.0 C 119.953,47.7472 119.874,46.0521 119.0,44.0 Z" />
	<path style="fill:#212121;" d="M 120.0,44.0 L 120.0,45.0 126.0,45.0 C 123.948,44.1258 122.253,44.0472 120.0,44.0 Z" />
	<path style="fill:#dfdfdf;" d="M 126.0,44.0 L 126.0,45.0 132.0,45.0 C 129.948,44.1258 128.253,44.0472 126.0,44.0 Z" />
	<path style="fill:#414141;" d="M 132.0,44.0 L 132.0,56.0 133.0,56.0 C 133.0,52.0168 133.552,47.6975 132.0,44.0 Z" />
	<path style="fill:#212121;" d="M 133.0,44.0 L 133.0,45.0 138.0,45.0 C 136.231,44.2211 134.964,44.0876 133.0,44.0 Z" />
	<path style="fill:#818181;" d="M 138.0,44.0 L 138.0,50.0 139.0,50.0 C 138.953,47.7472 138.874,46.0521 138.0,44.0 Z" />
	<path style="fill:#ffffff;" d="M 107.0,45.0 L 107.0,51.0 101.0,51.0 101.0,56.0 107.0,56.0 107.0,63.0 113.0,63.0 113.0,50.0 119.0,50.0 119.0,45.0 107.0,45.0 Z" />
	<path style="fill:#010101;" d="M 120.0,45.0 L 120.0,50.0 126.0,50.0 126.0,45.0 120.0,45.0 Z" />
	<path style="fill:#ffffff;" d="M 126.0,45.0 L 126.0,51.0 120.0,51.0 120.0,56.0 126.0,56.0 126.0,69.0 132.0,69.0 132.0,63.0 139.0,63.0 139.0,70.0 133.0,70.0 133.0,81.0 138.0,81.0 138.0,75.0 145.0,75.0 145.0,81.0 151.0,81.0 151.0,70.0 C 146.108,69.6268 144.373,67.8916 144.0,63.0 L 152.0,63.0 152.0,69.0 157.0,69.0 157.0,57.0 132.0,57.0 132.0,45.0 126.0,45.0 Z" />
	<path style="fill:#414141;" d="M 100.0,50.0 L 100.0,56.0 101.0,56.0 C 100.953,53.7472 100.874,52.0521 100.0,50.0 Z" />
	<path style="fill:#9f9f9f;" d="M 101.0,50.0 L 101.0,51.0 107.0,51.0 C 104.948,50.1258 103.253,50.0472 101.0,50.0 M 113.0,50.0 L 114.0,51.0 113.0,50.0 Z" />
	<path style="fill:#616161;" d="M 113.0,63.0 L 114.0,63.0 114.0,51.0 119.0,51.0 119.0,57.0 C 120.302,53.7852 117.623,47.1407 114.027,51.608 111.944,54.1957 113.0,59.8786 113.0,63.0 Z" />
	<path style="fill:#313131;" d="M 138.0,50.0 L 139.0,51.0 138.0,50.0 Z" />
	<path style="fill:#616161;" d="M 139.0,50.0 L 139.0,51.0 145.0,51.0 C 142.948,50.1257 141.253,50.0472 139.0,50.0 M 151.0,50.0 L 151.0,51.0 157.0,51.0 C 154.948,50.1257 153.253,50.0472 151.0,50.0 Z" />
	<path style="fill:#212121;" d="M 81.0,51.0 L 81.0,56.0 82.0,56.0 C 81.9124,54.036 81.7789,52.769 81.0,51.0 Z" />
	<path style="fill:#010101;" d="M 114.0,51.0 L 114.0,63.0 120.0,63.0 120.0,75.0 126.0,75.0 126.0,81.0 132.0,81.0 132.0,70.0 126.0,70.0 126.0,57.0 119.0,57.0 119.0,51.0 114.0,51.0 Z" />
	<path style="fill:#616161;" d="M 56.0,56.0 L 57.0,57.0 56.0,56.0 M 76.0,56.0 L 76.0,57.0 82.0,57.0 C 79.9479,56.1258 78.2528,56.0472 76.0,56.0 Z" />
	<path style="fill:#9f9f9f;" d="M 101.0,56.0 L 101.0,57.0 107.0,57.0 C 104.948,56.1258 103.253,56.0472 101.0,56.0 M 120.0,56.0 L 120.0,57.0 126.0,57.0 C 123.948,56.1258 122.253,56.0472 120.0,56.0 Z" />
	<path style="fill:#8f8f8f;" d="M 132.0,56.0 L 133.0,57.0 132.0,56.0 Z" />
	<path style="fill:#616161;" d="M 133.0,56.0 L 133.0,57.0 157.0,57.0 C 150.313,54.1942 140.233,56.0 133.0,56.0 M 176.0,56.0 L 177.0,57.0 176.0,56.0 Z" />
	<path style="fill:#9f9f9f;" d="M 177.0,56.0 L 177.0,57.0 195.0,57.0 C 189.778,54.8086 182.632,56.0 177.0,56.0 Z" />
	<path style="fill:#616161;" d="M 75.0,57.0 L 75.0,69.0 76.0,69.0 C 76.0,65.0168 76.5515,60.6975 75.0,57.0 M 157.0,57.0 L 157.0,69.0 158.0,69.0 C 158.0,65.0168 158.552,60.6975 157.0,57.0 Z" />
	<path style="fill:#dfdfdf;" d="M 81.0,63.0 L 81.0,69.0 82.0,69.0 C 81.9528,66.7472 81.8743,65.0521 81.0,63.0 M 88.0,63.0 L 88.0,82.0 94.0,82.0 94.0,81.0 89.0,81.0 C 89.0,75.3678 90.1914,68.2224 88.0,63.0 Z" />
	<path style="fill:#414141;" d="M 100.0,63.0 C 100.174,68.3101 101.69,69.8256 107.0,70.0 L 107.0,69.0 101.0,69.0 C 100.953,66.7472 100.874,65.0521 100.0,63.0 Z" />
	<path style="fill:#ffffff;" d="M 101.0,63.0 L 101.0,69.0 107.0,69.0 107.0,63.0 101.0,63.0 Z" />
	<path style="fill:#a1a1a1;" d="M 113.0,63.0 L 113.0,75.0 114.0,75.0 C 114.0,71.0168 114.552,66.6975 113.0,63.0 Z" />
	<path style="fill:#ffffff;" d="M 114.0,63.0 L 114.0,75.0 119.0,75.0 119.0,63.0 114.0,63.0 Z" />
	<path style="fill:#9f9f9f;" d="M 119.0,63.0 L 119.0,75.0 114.0,75.0 114.0,76.0 120.0,76.0 C 120.0,71.7366 120.661,66.9587 119.0,63.0 Z" />
	<path style="fill:#414141;" d="M 132.0,63.0 L 132.0,69.0 126.0,69.0 126.0,70.0 C 130.736,69.8445 134.096,68.1764 132.0,63.0 Z" />
	<path style="fill:#010101;" d="M 133.0,63.0 L 133.0,69.0 138.0,69.0 138.0,63.0 133.0,63.0 Z" />
	<path style="fill:#818181;" d="M 138.0,63.0 L 138.0,69.0 139.0,69.0 C 138.953,66.7472 138.874,65.0521 138.0,63.0 Z" />
	<path style="fill:#dfdfdf;" d="M 144.0,63.0 L 144.0,69.0 145.0,69.0 C 144.953,66.7472 144.874,65.0521 144.0,63.0 Z" />
	<path style="fill:#010101;" d="M 145.0,63.0 L 145.0,69.0 151.0,69.0 151.0,63.0 145.0,63.0 Z" />
	<path style="fill:#dfdfdf;" d="M 151.0,63.0 L 151.0,69.0 152.0,69.0 C 151.953,66.7472 151.874,65.0521 151.0,63.0 Z" />
	<path style="fill:#414141;" d="M 76.0,69.0 L 76.0,70.0 82.0,70.0 C 79.9479,69.1258 78.2528,69.0472 76.0,69.0 Z" />
	<path style="fill:#bfbfbf;" d="M 132.0,69.0 L 132.0,82.0 133.0,82.0 133.0,70.0 139.0,70.0 C 136.668,69.0155 134.543,69.0187 132.0,69.0 M 145.0,69.0 L 145.0,70.0 151.0,70.0 C 148.948,69.1257 147.253,69.0472 145.0,69.0 Z" />
	<path style="fill:#414141;" d="M 151.0,69.0 L 151.0,70.0 157.0,70.0 C 154.948,69.1257 153.253,69.0472 151.0,69.0 Z" />
	<path style="fill:#212121;" d="M 151.0,70.0 L 151.0,82.0 152.0,82.0 C 152.0,78.0168 152.552,73.6975 151.0,70.0 Z" />
	<path style="fill:#616161;" d="M 25.0,75.0 L 25.0,76.0 38.0,76.0 C 34.0413,74.3389 29.2634,75.0 25.0,75.0 M 50.0,75.0 L 50.0,76.0 69.0,76.0 C 63.5308,73.705 55.9013,75.0 50.0,75.0 M 113.0,75.0 L 114.0,76.0 113.0,75.0 M 119.0,88.0 L 120.0,88.0 120.0,76.0 126.0,76.0 C 117.797,72.679 119.0,82.7888 119.0,88.0 Z" />
	<path style="fill:#cfcfcf;" d="M 138.0,75.0 L 139.0,76.0 138.0,75.0 Z" />
	<path style="fill:#9f9f9f;" d="M 139.0,75.0 L 139.0,76.0 145.0,76.0 C 142.948,75.1257 141.253,75.0472 139.0,75.0 Z" />
	<path style="fill:#616161;" d="M 170.0,75.0 L 170.0,76.0 176.0,76.0 176.0,82.0 C 178.096,76.8236 174.736,75.1555 170.0,75.0 M 182.0,82.0 L 183.0,82.0 183.0,76.0 208.0,76.0 C 200.697,72.9356 182.324,72.1261 182.0,82.0 Z" />
	<path style="fill:#bfbfbf;" d="M 25.0,76.0 C 25.0,83.2818 21.334,100.247 31.0,101.0 L 31.0,100.0 26.0,100.0 C 26.0,92.7674 27.8058,82.6867 25.0,76.0 Z" />
	<path style="fill:#ffffff;" d="M 26.0,76.0 L 26.0,100.0 31.0,100.0 C 31.0,93.3161 28.414,82.3693 37.0,81.0 L 37.0,76.0 26.0,76.0 Z" />
	<path style="fill:#bfbfbf;" d="M 37.0,76.0 L 37.0,82.0 38.0,82.0 C 37.9528,79.7472 37.8742,78.0521 37.0,76.0 Z" />
	<path style="fill:#a1a1a1;" d="M 50.0,76.0 L 50.0,82.0 51.0,82.0 C 50.9528,79.7472 50.8743,78.0521 50.0,76.0 Z" />
	<path style="fill:#ffffff;" d="M 51.0,76.0 L 51.0,81.0 57.0,81.0 57.0,88.0 63.0,88.0 63.0,81.0 69.0,81.0 69.0,76.0 51.0,76.0 Z" />
	<path style="fill:#414141;" d="M 69.0,76.0 L 69.0,82.0 70.0,82.0 C 69.9528,79.7472 69.8743,78.0521 69.0,76.0 Z" />
	<path style="fill:#ffffff;" d="M 120.0,76.0 L 120.0,89.0 114.0,89.0 114.0,94.0 126.0,94.0 126.0,88.0 132.0,88.0 132.0,82.0 126.0,82.0 126.0,76.0 120.0,76.0 Z" />
	<path style="fill:#818181;" d="M 138.0,76.0 L 138.0,82.0 139.0,82.0 C 138.953,79.7472 138.874,78.0521 138.0,76.0 Z" />
	<path style="fill:#212121;" d="M 144.0,76.0 L 144.0,82.0 145.0,82.0 C 144.953,79.7472 144.874,78.0521 144.0,76.0 Z" />
	<path style="fill:#ffffff;" d="M 170.0,76.0 L 170.0,82.0 158.0,82.0 158.0,88.0 164.0,88.0 164.0,94.0 170.0,94.0 170.0,88.0 177.0,88.0 177.0,100.0 183.0,100.0 183.0,107.0 177.0,107.0 177.0,126.0 188.0,126.0 188.0,120.0 182.0,120.0 182.0,113.0 188.0,113.0 188.0,95.0 182.0,95.0 182.0,88.0 188.0,88.0 C 188.669,79.225 195.741,81.0348 196.0,89.0 L 189.0,89.0 189.0,94.0 C 196.878,94.601 196.0,100.568 196.0,107.0 L 207.0,107.0 207.0,76.0 183.0,76.0 183.0,82.0 176.0,82.0 176.0,76.0 170.0,76.0 Z" />
	<path style="fill:#bfbfbf;" d="M 207.0,76.0 L 207.0,107.0 208.0,107.0 C 208.0,97.9238 210.511,84.3668 207.0,76.0 Z" />
	<path style="fill:#dfdfdf;" d="M 32.0,81.0 L 32.0,82.0 37.0,82.0 C 35.231,81.2211 33.9641,81.0876 32.0,81.0 Z" />
	<path style="fill:#212121;" d="M 38.0,81.0 L 38.0,82.0 50.0,82.0 C 46.3025,80.4485 41.9832,81.0 38.0,81.0 Z" />
	<path style="fill:#dfdfdf;" d="M 51.0,81.0 L 51.0,82.0 57.0,82.0 C 54.9479,81.1258 53.2528,81.0472 51.0,81.0 M 63.0,81.0 L 63.0,82.0 69.0,82.0 C 66.9479,81.1258 65.2528,81.0472 63.0,81.0 Z" />
	<path style="fill:#212121;" d="M 76.0,81.0 L 76.0,82.0 82.0,82.0 C 79.9479,81.1258 78.2528,81.0472 76.0,81.0 M 95.0,81.0 L 95.0,82.0 101.0,82.0 C 98.9479,81.1258 97.2528,81.0472 95.0,81.0 M 107.0,81.0 L 107.0,82.0 114.0,82.0 C 111.668,81.0155 109.543,81.0187 107.0,81.0 M 126.0,81.0 L 126.0,82.0 132.0,82.0 C 129.948,81.1257 128.253,81.0472 126.0,81.0 Z" />
	<path style="fill:#dfdfdf;" d="M 133.0,81.0 L 133.0,82.0 138.0,82.0 C 136.231,81.2211 134.964,81.0876 133.0,81.0 M 145.0,81.0 L 145.0,82.0 151.0,82.0 C 148.948,81.1257 147.253,81.0472 145.0,81.0 Z" />
	<path style="fill:#212121;" d="M 158.0,81.0 L 158.0,82.0 170.0,82.0 C 166.303,80.4485 161.983,81.0 158.0,81.0 M 177.0,81.0 L 177.0,82.0 182.0,82.0 C 180.231,81.2211 178.964,81.0876 177.0,81.0 Z" />
	<path style="fill:#dfdfdf;" d="M 196.0,89.0 L 196.0,88.0 189.0,88.0 189.0,82.0 195.0,82.0 C 187.401,78.9232 186.194,88.8838 196.0,89.0 Z" />
	<path style="fill:#818181;" d="M 31.0,82.0 L 31.0,101.0 32.0,101.0 C 32.0,95.0988 33.295,87.4692 31.0,82.0 Z" />
	<path style="fill:#414141;" d="M 37.0,82.0 L 37.0,101.0 38.0,101.0 C 38.0,95.0987 39.295,87.4692 37.0,82.0 Z" />
	<path style="fill:#ffffff;" d="M 38.0,82.0 L 38.0,100.0 44.0,100.0 44.0,94.0 50.0,94.0 50.0,82.0 38.0,82.0 Z" />
	<path style="fill:#616161;" d="M 50.0,82.0 L 50.0,94.0 51.0,94.0 C 51.0,90.0168 51.5515,85.6975 50.0,82.0 Z" />
	<path style="fill:#010101;" d="M 51.0,82.0 L 51.0,94.0 63.0,94.0 63.0,89.0 C 58.1084,88.6268 56.3732,86.8916 56.0,82.0 L 51.0,82.0 Z" />
	<path style="fill:#616161;" d="M 56.0,82.0 L 56.0,88.0 57.0,88.0 C 56.9528,85.7472 56.8742,84.0521 56.0,82.0 M 75.0,82.0 L 75.0,88.0 76.0,88.0 C 75.9528,85.7472 75.8743,84.0521 75.0,82.0 Z" />
	<path style="fill:#ffffff;" d="M 76.0,82.0 L 76.0,88.0 81.0,88.0 81.0,82.0 76.0,82.0 Z" />
	<path style="fill:#dfdfdf;" d="M 81.0,82.0 C 81.284,90.6473 88.1133,89.0 95.0,89.0 L 95.0,88.0 82.0,88.0 C 81.9528,85.7472 81.8743,84.0521 81.0,82.0 Z" />
	<path style="fill:#ffffff;" d="M 95.0,82.0 L 95.0,89.0 82.0,89.0 82.0,95.0 76.0,95.0 76.0,107.0 81.0,107.0 C 81.3732,102.108 83.1084,100.373 88.0,100.0 L 88.0,94.0 95.0,94.0 95.0,100.0 101.0,100.0 101.0,107.0 107.0,107.0 107.0,113.0 114.0,113.0 114.0,126.0 119.0,126.0 C 119.373,121.108 121.108,119.373 126.0,119.0 L 126.0,113.0 132.0,113.0 132.0,107.0 107.0,107.0 107.0,89.0 C 102.108,88.6268 100.373,86.8916 100.0,82.0 L 95.0,82.0 Z" />
	<path style="fill:#bfbfbf;" d="M 100.0,82.0 L 100.0,88.0 101.0,88.0 C 100.953,85.7472 100.874,84.0521 100.0,82.0 Z" />
	<path style="fill:#ffffff;" d="M 107.0,82.0 L 107.0,88.0 113.0,88.0 113.0,82.0 107.0,82.0 Z" />
	<path style="fill:#616161;" d="M 113.0,82.0 L 113.0,88.0 114.0,88.0 C 113.953,85.7472 113.874,84.0521 113.0,82.0 Z" />
	<path style="fill:#414141;" d="M 132.0,82.0 L 132.0,88.0 133.0,88.0 C 132.953,85.7472 132.874,84.0521 132.0,82.0 Z" />
	<path style="fill:#a1a1a1;" d="M 157.0,82.0 L 157.0,88.0 158.0,88.0 C 157.953,85.7472 157.874,84.0521 157.0,82.0 Z" />
	<path style="fill:#010101;" d="M 189.0,82.0 L 189.0,88.0 195.0,88.0 195.0,82.0 189.0,82.0 Z" />
	<path style="fill:#bfbfbf;" d="M 195.0,82.0 L 195.0,88.0 196.0,88.0 C 195.953,85.7472 195.874,84.0521 195.0,82.0 Z" />
	<path style="fill:#212121;" d="M 57.0,88.0 L 57.0,89.0 63.0,89.0 C 60.9479,88.1257 59.2528,88.0472 57.0,88.0 Z" />
	<path style="fill:#dfdfdf;" d="M 63.0,88.0 L 63.0,89.0 75.0,89.0 C 71.3025,87.4485 66.9832,88.0 63.0,88.0 Z" />
	<path style="fill:#9f9f9f;" d="M 75.0,88.0 L 75.0,94.0 76.0,94.0 C 75.9528,91.7472 75.8743,90.0521 75.0,88.0 Z" />
	<path style="fill:#212121;" d="M 76.0,88.0 L 76.0,89.0 81.0,89.0 81.0,94.0 82.0,94.0 82.0,88.0 76.0,88.0 Z" />
	<path style="fill:#dfdfdf;" d="M 101.0,88.0 L 101.0,89.0 107.0,89.0 C 104.948,88.1258 103.253,88.0472 101.0,88.0 Z" />
	<path style="fill:#212121;" d="M 107.0,88.0 L 107.0,89.0 113.0,89.0 C 110.948,88.1258 109.253,88.0472 107.0,88.0 Z" />
	<path style="fill:#a1a1a1;" d="M 113.0,88.0 L 113.0,94.0 114.0,94.0 C 113.953,91.7472 113.874,90.0521 113.0,88.0 Z" />
	<path style="fill:#dfdfdf;" d="M 114.0,88.0 L 114.0,89.0 120.0,89.0 C 117.948,88.1258 116.253,88.0472 114.0,88.0 Z" />
	<path style="fill:#212121;" d="M 126.0,88.0 L 126.0,89.0 132.0,89.0 C 129.948,88.1257 128.253,88.0472 126.0,88.0 Z" />
	<path style="fill:#bfbfbf;" d="M 132.0,88.0 L 132.0,94.0 133.0,94.0 C 132.953,91.7472 132.874,90.0521 132.0,88.0 Z" />
	<path style="fill:#dfdfdf;" d="M 133.0,88.0 L 133.0,89.0 144.0,89.0 144.0,94.0 145.0,94.0 145.0,88.0 133.0,88.0 Z" />
	<path style="fill:#212121;" d="M 158.0,88.0 L 158.0,89.0 163.0,89.0 C 161.231,88.2211 159.964,88.0876 158.0,88.0 Z" />
	<path style="fill:#414141;" d="M 163.0,88.0 L 163.0,94.0 164.0,94.0 C 163.953,91.7472 163.874,90.0521 163.0,88.0 Z" />
	<path style="fill:#212121;" d="M 170.0,88.0 L 170.0,89.0 176.0,89.0 C 173.948,88.1257 172.253,88.0472 170.0,88.0 Z" />
	<path style="fill:#a1a1a1;" d="M 176.0,88.0 L 176.0,101.0 177.0,101.0 C 177.0,96.7366 177.661,91.9587 176.0,88.0 Z" />
	<path style="fill:#9f9f9f;" d="M 182.0,88.0 L 182.0,94.0 183.0,94.0 C 182.953,91.7472 182.874,90.0521 182.0,88.0 Z" />
	<path style="fill:#212121;" d="M 183.0,88.0 L 183.0,89.0 188.0,89.0 188.0,94.0 189.0,94.0 189.0,88.0 183.0,88.0 Z" />
	<path style="fill:#ffffff;" d="M 63.0,89.0 L 63.0,94.0 75.0,94.0 75.0,89.0 63.0,89.0 Z" />
	<path style="fill:#010101;" d="M 76.0,89.0 L 76.0,94.0 81.0,94.0 81.0,89.0 76.0,89.0 M 107.0,89.0 L 107.0,107.0 132.0,107.0 132.0,101.0 126.0,101.0 126.0,95.0 113.0,95.0 113.0,89.0 107.0,89.0 M 126.0,89.0 L 126.0,94.0 132.0,94.0 132.0,89.0 126.0,89.0 Z" />
	<path style="fill:#ffffff;" d="M 133.0,89.0 C 132.291,93.4442 130.394,94.6648 126.0,95.0 L 126.0,100.0 C 130.892,100.373 132.627,102.108 133.0,107.0 L 138.0,107.0 138.0,94.0 144.0,94.0 144.0,89.0 133.0,89.0 Z" />
	<path style="fill:#010101;" d="M 183.0,89.0 L 183.0,94.0 188.0,94.0 188.0,89.0 183.0,89.0 Z" />
	<path style="fill:#818181;" d="M 44.0,94.0 L 44.0,95.0 82.0,95.0 C 71.9641,90.7888 54.9106,94.0 44.0,94.0 M 88.0,94.0 L 88.0,95.0 94.0,95.0 94.0,101.0 C 96.0958,95.8236 92.7365,94.1555 88.0,94.0 Z" />
	<path style="fill:#bfbfbf;" d="M 94.0,94.0 L 95.0,95.0 94.0,94.0 Z" />
	<path style="fill:#515151;" d="M 113.0,94.0 L 114.0,95.0 113.0,94.0 Z" />
	<path style="fill:#818181;" d="M 114.0,94.0 L 114.0,95.0 132.0,95.0 C 126.778,92.8086 119.632,94.0 114.0,94.0 Z" />
	<path style="fill:#bfbfbf;" d="M 138.0,94.0 L 139.0,95.0 138.0,94.0 Z" />
	<path style="fill:#818181;" d="M 138.0,107.0 L 139.0,107.0 139.0,95.0 157.0,95.0 C 144.494,89.7522 138.0,94.9956 138.0,107.0 Z" />
	<path style="fill:#313131;" d="M 157.0,94.0 L 158.0,95.0 157.0,94.0 Z" />
	<path style="fill:#818181;" d="M 164.0,94.0 L 164.0,95.0 170.0,95.0 C 167.948,94.1257 166.253,94.0472 164.0,94.0 Z" />
	<path style="fill:#cfcfcf;" d="M 182.0,94.0 L 183.0,95.0 182.0,94.0 Z" />
	<path style="fill:#818181;" d="M 183.0,94.0 L 183.0,95.0 195.0,95.0 C 191.303,93.4485 186.983,94.0 183.0,94.0 Z" />
	<path style="fill:#212121;" d="M 44.0,95.0 L 44.0,100.0 45.0,100.0 C 44.9124,98.0359 44.7789,96.769 44.0,95.0 Z" />
	<path style="fill:#010101;" d="M 45.0,95.0 L 45.0,100.0 50.0,100.0 50.0,95.0 45.0,95.0 Z" />
	<path style="fill:#a1a1a1;" d="M 50.0,95.0 L 50.0,101.0 51.0,101.0 C 50.9528,98.7472 50.8742,97.0521 50.0,95.0 Z" />
	<path style="fill:#ffffff;" d="M 51.0,95.0 L 51.0,101.0 45.0,101.0 C 45.0,112.646 42.3155,114.0 31.0,114.0 L 31.0,107.0 26.0,107.0 26.0,138.0 38.0,138.0 38.0,144.0 51.0,144.0 51.0,157.0 56.0,157.0 56.0,151.0 63.0,151.0 63.0,144.0 75.0,144.0 75.0,138.0 95.0,138.0 95.0,144.0 100.0,144.0 100.0,133.0 C 95.5558,132.291 94.3352,130.394 94.0,126.0 L 89.0,126.0 C 88.2626,135.665 77.2748,133.0 70.0,133.0 68.8229,140.381 62.0034,139.0 56.0,139.0 L 56.0,132.0 69.0,132.0 69.0,126.0 44.0,126.0 44.0,119.0 56.0,119.0 56.0,114.0 50.0,114.0 50.0,107.0 57.0,107.0 57.0,113.0 63.0,113.0 63.0,107.0 69.0,107.0 69.0,101.0 63.0,101.0 63.0,95.0 51.0,95.0 Z" />
	<path style="fill:#010101;" d="M 63.0,95.0 L 63.0,100.0 C 67.8916,100.373 69.6268,102.108 70.0,107.0 L 63.0,107.0 63.0,113.0 C 67.8916,113.373 69.6268,115.108 70.0,120.0 L 63.0,120.0 63.0,114.0 57.0,114.0 57.0,120.0 45.0,120.0 45.0,126.0 70.0,126.0 70.0,132.0 88.0,132.0 88.0,126.0 95.0,126.0 95.0,132.0 100.0,132.0 100.0,126.0 107.0,126.0 107.0,132.0 114.0,132.0 114.0,145.0 107.0,145.0 107.0,157.0 114.0,157.0 114.0,170.0 119.0,170.0 119.0,157.0 132.0,157.0 132.0,138.0 145.0,138.0 145.0,144.0 151.0,144.0 151.0,138.0 157.0,138.0 157.0,126.0 152.0,126.0 C 151.403,133.82 144.597,133.82 144.0,126.0 L 151.0,126.0 151.0,101.0 144.0,101.0 144.0,95.0 139.0,95.0 139.0,107.0 133.0,107.0 C 132.627,111.892 130.892,113.627 126.0,114.0 L 126.0,120.0 120.0,120.0 120.0,126.0 126.0,126.0 126.0,152.0 C 115.167,151.174 119.0,134.023 119.0,126.0 L 113.0,126.0 113.0,114.0 107.0,114.0 107.0,120.0 94.0,120.0 94.0,114.0 88.0,114.0 88.0,107.0 100.0,107.0 100.0,101.0 94.0,101.0 94.0,95.0 89.0,95.0 C 88.2913,99.4442 86.3943,100.665 82.0,101.0 L 82.0,107.0 75.0,107.0 75.0,95.0 63.0,95.0 Z" />
	<path style="fill:#616161;" d="M 75.0,95.0 L 75.0,107.0 76.0,107.0 C 76.0,103.017 76.5515,98.6975 75.0,95.0 Z" />
	<path style="fill:#212121;" d="M 88.0,95.0 L 88.0,100.0 89.0,100.0 C 88.9124,98.0359 88.7789,96.769 88.0,95.0 M 144.0,95.0 L 144.0,101.0 145.0,101.0 C 144.953,98.7472 144.874,97.0521 144.0,95.0 Z" />
	<path style="fill:#ffffff;" d="M 145.0,95.0 L 145.0,100.0 C 155.833,100.826 152.0,117.977 152.0,126.0 L 157.0,126.0 157.0,113.0 164.0,113.0 164.0,119.0 170.0,119.0 170.0,107.0 163.0,107.0 163.0,101.0 157.0,101.0 157.0,95.0 145.0,95.0 Z" />
	<path style="fill:#616161;" d="M 157.0,95.0 L 157.0,101.0 158.0,101.0 C 157.953,98.7472 157.874,97.0521 157.0,95.0 Z" />
	<path style="fill:#dfdfdf;" d="M 188.0,95.0 L 188.0,113.0 189.0,113.0 C 189.0,107.368 190.191,100.222 188.0,95.0 Z" />
	<path style="fill:#bfbfbf;" d="M 195.0,95.0 L 195.0,107.0 196.0,107.0 C 196.0,103.017 196.552,98.6975 195.0,95.0 Z" />
	<path style="fill:#8f8f8f;" d="M 25.0,100.0 L 26.0,101.0 25.0,100.0 Z" />
	<path style="fill:#bfbfbf;" d="M 38.0,100.0 L 38.0,101.0 44.0,101.0 C 41.9479,100.126 40.2528,100.047 38.0,100.0 Z" />
	<path style="fill:#414141;" d="M 44.0,100.0 L 44.0,101.0 50.0,101.0 C 47.9479,100.126 46.2528,100.047 44.0,100.0 M 63.0,100.0 L 63.0,101.0 69.0,101.0 C 66.9479,100.126 65.2528,100.047 63.0,100.0 Z" />
	<path style="fill:#bfbfbf;" d="M 82.0,100.0 L 82.0,101.0 88.0,101.0 C 85.9479,100.126 84.2528,100.047 82.0,100.0 M 95.0,100.0 L 95.0,101.0 101.0,101.0 C 98.9479,100.126 97.2528,100.047 95.0,100.0 M 126.0,100.0 L 126.0,101.0 132.0,101.0 C 129.948,100.126 128.253,100.047 126.0,100.0 M 145.0,100.0 L 145.0,101.0 151.0,101.0 C 148.948,100.126 147.253,100.047 145.0,100.0 Z" />
	<path style="fill:#414141;" d="M 158.0,100.0 L 158.0,101.0 164.0,101.0 C 161.948,100.126 160.253,100.047 158.0,100.0 Z" />
	<path style="fill:#bfbfbf;" d="M 177.0,100.0 L 177.0,101.0 183.0,101.0 C 180.948,100.126 179.253,100.047 177.0,100.0 Z" />
	<path style="fill:#dfdfdf;" d="M 44.0,101.0 L 44.0,113.0 45.0,113.0 C 45.0,109.017 45.5515,104.697 44.0,101.0 Z" />
	<path style="fill:#414141;" d="M 69.0,101.0 L 69.0,107.0 70.0,107.0 C 69.9528,104.747 69.8742,103.052 69.0,101.0 Z" />
	<path style="fill:#dfdfdf;" d="M 81.0,101.0 L 81.0,107.0 82.0,107.0 C 81.9528,104.747 81.8743,103.052 81.0,101.0 Z" />
	<path style="fill:#414141;" d="M 100.0,101.0 L 100.0,107.0 101.0,107.0 C 100.953,104.747 100.874,103.052 100.0,101.0 Z" />
	<path style="fill:#bfbfbf;" d="M 132.0,101.0 L 132.0,107.0 133.0,107.0 C 132.953,104.747 132.874,103.052 132.0,101.0 Z" />
	<path style="fill:#dfdfdf;" d="M 151.0,101.0 L 151.0,126.0 152.0,126.0 C 152.0,118.503 153.907,107.928 151.0,101.0 Z" />
	<path style="fill:#bfbfbf;" d="M 163.0,101.0 L 163.0,107.0 164.0,107.0 C 163.953,104.747 163.874,103.052 163.0,101.0 Z" />
	<path style="fill:#616161;" d="M 182.0,101.0 L 182.0,107.0 183.0,107.0 C 182.953,104.747 182.874,103.052 182.0,101.0 Z" />
	<path style="fill:#bfbfbf;" d="M 25.0,107.0 L 25.0,138.0 26.0,138.0 C 26.0,128.924 28.5108,115.367 25.0,107.0 Z" />
	<path style="fill:#818181;" d="M 31.0,107.0 L 31.0,113.0 32.0,113.0 C 31.9528,110.747 31.8742,109.052 31.0,107.0 Z" />
	<path style="fill:#616161;" d="M 50.0,107.0 L 50.0,113.0 51.0,113.0 C 50.9528,110.747 50.8742,109.052 50.0,107.0 Z" />
	<path style="fill:#010101;" d="M 51.0,107.0 L 51.0,113.0 56.0,113.0 56.0,107.0 51.0,107.0 Z" />
	<path style="fill:#616161;" d="M 56.0,107.0 C 56.1744,112.31 57.6899,113.826 63.0,114.0 L 63.0,113.0 57.0,113.0 C 56.9528,110.747 56.8742,109.052 56.0,107.0 Z" />
	<path style="fill:#dfdfdf;" d="M 88.0,107.0 L 88.0,113.0 89.0,113.0 C 88.9528,110.747 88.8742,109.052 88.0,107.0 Z" />
	<path style="fill:#ffffff;" d="M 89.0,107.0 L 89.0,113.0 95.0,113.0 95.0,119.0 107.0,119.0 107.0,114.0 C 102.108,113.627 100.373,111.892 100.0,107.0 L 89.0,107.0 Z" />
	<path style="fill:#bfbfbf;" d="M 100.0,107.0 L 100.0,113.0 101.0,113.0 C 100.953,110.747 100.874,109.052 100.0,107.0 Z" />
	<path style="fill:#010101;" d="M 101.0,107.0 L 101.0,113.0 107.0,113.0 107.0,107.0 101.0,107.0 Z" />
	<path style="fill:#414141;" d="M 132.0,107.0 L 132.0,113.0 133.0,113.0 C 132.953,110.747 132.874,109.052 132.0,107.0 Z" />
	<path style="fill:#a1a1a1;" d="M 176.0,107.0 L 176.0,126.0 177.0,126.0 C 177.0,120.099 178.295,112.469 176.0,107.0 Z" />
	<path style="fill:#cfcfcf;" d="M 31.0,113.0 L 32.0,114.0 31.0,113.0 Z" />
	<path style="fill:#9f9f9f;" d="M 32.0,113.0 L 32.0,114.0 44.0,114.0 C 40.3025,112.448 35.9832,113.0 32.0,113.0 M 50.0,113.0 L 50.0,114.0 56.0,114.0 56.0,119.0 44.0,119.0 44.0,120.0 C 50.737,120.0 56.7276,121.296 57.0,113.0 L 50.0,113.0 M 63.0,113.0 L 63.0,114.0 69.0,114.0 C 66.9479,113.126 65.2528,113.047 63.0,113.0 Z" />
	<path style="fill:#616161;" d="M 88.0,113.0 L 88.0,114.0 94.0,114.0 C 91.9479,113.126 90.2528,113.047 88.0,113.0 Z" />
	<path style="fill:#afafaf;" d="M 94.0,113.0 L 95.0,114.0 94.0,113.0 Z" />
	<path style="fill:#9f9f9f;" d="M 101.0,113.0 L 101.0,114.0 107.0,114.0 C 104.948,113.126 103.253,113.047 101.0,113.0 Z" />
	<path style="fill:#616161;" d="M 107.0,113.0 L 107.0,114.0 113.0,114.0 C 110.948,113.126 109.253,113.047 107.0,113.0 Z" />
	<path style="fill:#a1a1a1;" d="M 113.0,113.0 L 113.0,126.0 114.0,126.0 C 114.0,121.737 114.661,116.959 113.0,113.0 Z" />
	<path style="fill:#616161;" d="M 126.0,113.0 L 126.0,114.0 132.0,114.0 C 129.948,113.126 128.253,113.047 126.0,113.0 Z" />
	<path style="fill:#9f9f9f;" d="M 157.0,113.0 L 158.0,114.0 157.0,113.0 Z" />
	<path style="fill:#616161;" d="M 158.0,113.0 L 158.0,114.0 163.0,114.0 C 161.231,113.221 159.964,113.088 158.0,113.0 Z" />
	<path style="fill:#8f8f8f;" d="M 163.0,113.0 L 164.0,114.0 163.0,113.0 Z" />
	<path style="fill:#9f9f9f;" d="M 182.0,113.0 L 182.0,120.0 183.0,120.0 C 182.981,117.457 182.985,115.332 182.0,113.0 Z" />
	<path style="fill:#616161;" d="M 183.0,113.0 L 183.0,114.0 189.0,114.0 C 186.948,113.126 185.253,113.047 183.0,113.0 Z" />
	<path style="fill:#515151;" d="M 201.0,113.0 L 202.0,114.0 201.0,113.0 Z" />
	<path style="fill:#9f9f9f;" d="M 202.0,113.0 L 202.0,114.0 207.0,114.0 C 205.231,113.221 203.964,113.088 202.0,113.0 Z" />
	<path style="fill:#707070;" d="M 207.0,113.0 L 208.0,114.0 207.0,113.0 Z" />
	<path style="fill:#ffffff;" d="M 63.0,114.0 L 63.0,119.0 69.0,119.0 69.0,114.0 63.0,114.0 Z" />
	<path style="fill:#414141;" d="M 69.0,114.0 L 69.0,120.0 70.0,120.0 C 69.9528,117.747 69.8742,116.052 69.0,114.0 Z" />
	<path style="fill:#818181;" d="M 94.0,114.0 L 94.0,119.0 95.0,119.0 C 94.9124,117.036 94.7789,115.769 94.0,114.0 Z" />
	<path style="fill:#616161;" d="M 157.0,114.0 L 157.0,126.0 158.0,126.0 C 158.0,122.017 158.552,117.697 157.0,114.0 Z" />
	<path style="fill:#414141;" d="M 163.0,114.0 L 163.0,119.0 164.0,119.0 C 163.912,117.036 163.779,115.769 163.0,114.0 Z" />
	<path style="fill:#818181;" d="M 201.0,114.0 L 201.0,126.0 202.0,126.0 C 202.0,122.017 202.552,117.697 201.0,114.0 Z" />
	<path style="fill:#ffffff;" d="M 202.0,114.0 L 202.0,119.0 207.0,119.0 207.0,114.0 202.0,114.0 Z" />
	<path style="fill:#bfbfbf;" d="M 207.0,114.0 L 207.0,119.0 208.0,119.0 C 207.912,117.036 207.779,115.769 207.0,114.0 Z" />
	<path style="fill:#cfcfcf;" d="M 31.0,119.0 L 32.0,120.0 31.0,119.0 Z" />
	<path style="fill:#9f9f9f;" d="M 32.0,119.0 L 32.0,120.0 38.0,120.0 C 35.9479,119.126 34.2528,119.047 32.0,119.0 Z" />
	<path style="fill:#616161;" d="M 56.0,119.0 L 57.0,120.0 56.0,119.0 Z" />
	<path style="fill:#9f9f9f;" d="M 63.0,119.0 L 63.0,120.0 69.0,120.0 C 66.9479,119.126 65.2528,119.047 63.0,119.0 Z" />
	<path style="fill:#515151;" d="M 94.0,119.0 L 95.0,120.0 94.0,119.0 Z" />
	<path style="fill:#9f9f9f;" d="M 95.0,119.0 L 95.0,120.0 107.0,120.0 C 103.303,118.448 98.9832,119.0 95.0,119.0 M 120.0,119.0 L 120.0,120.0 126.0,120.0 C 123.948,119.126 122.253,119.047 120.0,119.0 Z" />
	<path style="fill:#616161;" d="M 132.0,119.0 L 132.0,120.0 138.0,120.0 C 135.948,119.126 134.253,119.047 132.0,119.0 Z" />
	<path style="fill:#313131;" d="M 138.0,119.0 L 139.0,120.0 138.0,119.0 Z" />
	<path style="fill:#9f9f9f;" d="M 164.0,119.0 L 164.0,120.0 170.0,120.0 C 167.948,119.126 166.253,119.047 164.0,119.0 Z" />
	<path style="fill:#616161;" d="M 183.0,119.0 L 183.0,120.0 189.0,120.0 C 186.948,119.126 185.253,119.047 183.0,119.0 M 195.0,119.0 L 195.0,120.0 201.0,120.0 C 198.948,119.126 197.253,119.047 195.0,119.0 Z" />
	<path style="fill:#9f9f9f;" d="M 202.0,119.0 L 202.0,120.0 208.0,120.0 C 205.948,119.126 204.253,119.047 202.0,119.0 Z" />
	<path style="fill:#818181;" d="M 31.0,120.0 L 31.0,132.0 32.0,132.0 C 32.0,128.017 32.5515,123.697 31.0,120.0 Z" />
	<path style="fill:#010101;" d="M 32.0,120.0 L 32.0,132.0 37.0,132.0 37.0,120.0 32.0,120.0 Z" />
	<path style="fill:#414141;" d="M 37.0,120.0 L 37.0,132.0 38.0,132.0 C 38.0,128.017 38.5515,123.697 37.0,120.0 Z" />
	<path style="fill:#212121;" d="M 44.0,120.0 L 44.0,126.0 45.0,126.0 C 44.9528,123.747 44.8742,122.052 44.0,120.0 Z" />
	<path style="fill:#9f9f9f;" d="M 119.0,120.0 L 119.0,126.0 120.0,126.0 C 119.953,123.747 119.874,122.052 119.0,120.0 Z" />
	<path style="fill:#bfbfbf;" d="M 132.0,120.0 L 132.0,132.0 133.0,132.0 C 133.0,128.017 133.552,123.697 132.0,120.0 Z" />
	<path style="fill:#ffffff;" d="M 133.0,120.0 L 133.0,132.0 138.0,132.0 138.0,120.0 133.0,120.0 Z" />
	<path style="fill:#818181;" d="M 138.0,120.0 L 138.0,132.0 139.0,132.0 C 139.0,128.017 139.552,123.697 138.0,120.0 Z" />
	<path style="fill:#dfdfdf;" d="M 188.0,120.0 L 188.0,126.0 189.0,126.0 C 188.953,123.747 188.874,122.052 188.0,120.0 Z" />
	<path style="fill:#bfbfbf;" d="M 195.0,120.0 L 195.0,126.0 196.0,126.0 C 195.953,123.747 195.874,122.052 195.0,120.0 Z" />
	<path style="fill:#ffffff;" d="M 196.0,120.0 L 196.0,126.0 201.0,126.0 201.0,120.0 196.0,120.0 Z" />
	<path style="fill:#414141;" d="M 69.0,126.0 L 69.0,132.0 57.0,132.0 57.0,133.0 C 62.2112,133.0 72.321,134.203 69.0,126.0 Z" />
	<path style="fill:#dfdfdf;" d="M 88.0,126.0 L 88.0,132.0 89.0,132.0 C 88.9528,129.747 88.8742,128.052 88.0,126.0 Z" />
	<path style="fill:#818181;" d="M 94.0,126.0 L 94.0,132.0 95.0,132.0 C 94.9528,129.747 94.8742,128.052 94.0,126.0 Z" />
	<path style="fill:#414141;" d="M 100.0,126.0 C 100.174,131.31 101.69,132.826 107.0,133.0 L 107.0,132.0 101.0,132.0 C 100.953,129.747 100.874,128.052 100.0,126.0 Z" />
	<path style="fill:#ffffff;" d="M 101.0,126.0 L 101.0,132.0 107.0,132.0 107.0,126.0 101.0,126.0 Z" />
	<path style="fill:#616161;" d="M 119.0,126.0 L 119.0,151.0 120.0,151.0 C 120.0,143.503 121.907,132.928 119.0,126.0 Z" />
	<path style="fill:#ffffff;" d="M 120.0,126.0 L 120.0,151.0 126.0,151.0 126.0,126.0 120.0,126.0 Z" />
	<path style="fill:#212121;" d="M 144.0,126.0 L 144.0,132.0 145.0,132.0 C 144.953,129.747 144.874,128.052 144.0,126.0 Z" />
	<path style="fill:#ffffff;" d="M 145.0,126.0 L 145.0,132.0 151.0,132.0 151.0,126.0 145.0,126.0 Z" />
	<path style="fill:#212121;" d="M 151.0,126.0 L 151.0,132.0 152.0,132.0 C 151.953,129.747 151.874,128.052 151.0,126.0 Z" />
	<path style="fill:#a1a1a1;" d="M 157.0,126.0 L 157.0,138.0 158.0,138.0 C 158.0,134.017 158.552,129.697 157.0,126.0 Z" />
	<path style="fill:#ffffff;" d="M 158.0,126.0 L 158.0,138.0 164.0,138.0 164.0,144.0 170.0,144.0 170.0,152.0 C 159.018,152.0 157.0,149.982 157.0,139.0 L 152.0,139.0 152.0,145.0 144.0,145.0 144.0,139.0 133.0,139.0 133.0,157.0 138.0,157.0 138.0,151.0 145.0,151.0 145.0,158.0 139.0,158.0 139.0,163.0 145.0,163.0 145.0,170.0 132.0,170.0 132.0,158.0 120.0,158.0 120.0,170.0 126.0,170.0 126.0,183.0 107.0,183.0 107.0,189.0 100.0,189.0 100.0,183.0 95.0,183.0 95.0,189.0 82.0,189.0 82.0,196.0 76.0,196.0 76.0,207.0 81.0,207.0 C 81.7087,202.556 83.6057,201.335 88.0,201.0 L 88.0,195.0 95.0,195.0 95.0,202.0 89.0,202.0 89.0,207.0 107.0,207.0 107.0,202.0 C 102.108,201.627 100.373,199.892 100.0,195.0 L 113.0,195.0 C 113.373,190.108 115.108,188.373 120.0,188.0 L 120.0,196.0 114.0,196.0 114.0,201.0 126.0,201.0 126.0,188.0 132.0,188.0 132.0,182.0 138.0,182.0 138.0,176.0 145.0,176.0 145.0,182.0 170.0,182.0 170.0,195.0 176.0,195.0 176.0,182.0 182.0,182.0 182.0,176.0 188.0,176.0 188.0,170.0 182.0,170.0 182.0,151.0 188.0,151.0 188.0,145.0 182.0,145.0 182.0,133.0 177.0,133.0 177.0,139.0 170.0,139.0 170.0,133.0 C 165.108,132.627 163.373,130.892 163.0,126.0 L 158.0,126.0 Z" />
	<path style="fill:#bfbfbf;" d="M 163.0,126.0 L 163.0,132.0 164.0,132.0 C 163.953,129.747 163.874,128.052 163.0,126.0 M 32.0,132.0 L 32.0,133.0 38.0,133.0 C 35.9479,132.126 34.2528,132.047 32.0,132.0 Z" />
	<path style="fill:#414141;" d="M 44.0,132.0 L 44.0,133.0 50.0,133.0 C 47.9479,132.126 46.2528,132.047 44.0,132.0 Z" />
	<path style="fill:#a1a1a1;" d="M 50.0,132.0 L 50.0,138.0 51.0,138.0 C 50.9528,135.747 50.8742,134.052 50.0,132.0 Z" />
	<path style="fill:#9f9f9f;" d="M 56.0,132.0 L 56.0,138.0 57.0,138.0 C 56.9528,135.747 56.8742,134.052 56.0,132.0 Z" />
	<path style="fill:#bfbfbf;" d="M 69.0,132.0 L 69.0,138.0 70.0,138.0 70.0,133.0 88.0,133.0 C 82.5308,130.705 74.9013,132.0 69.0,132.0 M 95.0,132.0 L 95.0,133.0 100.0,133.0 100.0,145.0 101.0,145.0 101.0,132.0 95.0,132.0 M 107.0,132.0 L 107.0,133.0 113.0,133.0 C 110.948,132.126 109.253,132.047 107.0,132.0 Z" />
	<path style="fill:#616161;" d="M 113.0,132.0 L 113.0,145.0 114.0,145.0 C 114.0,140.737 114.661,135.959 113.0,132.0 Z" />
	<path style="fill:#414141;" d="M 132.0,132.0 L 132.0,133.0 139.0,133.0 C 136.668,132.015 134.543,132.019 132.0,132.0 M 145.0,132.0 L 145.0,133.0 151.0,133.0 C 148.948,132.126 147.253,132.047 145.0,132.0 Z" />
	<path style="fill:#bfbfbf;" d="M 164.0,132.0 L 164.0,133.0 170.0,133.0 C 167.948,132.126 166.253,132.047 164.0,132.0 Z" />
	<path style="fill:#707070;" d="M 176.0,132.0 L 177.0,133.0 176.0,132.0 Z" />
	<path style="fill:#bfbfbf;" d="M 177.0,132.0 L 177.0,133.0 182.0,133.0 C 180.231,132.221 178.964,132.088 177.0,132.0 Z" />
	<path style="fill:#9f9f9f;" d="M 182.0,132.0 L 182.0,145.0 183.0,145.0 C 183.0,140.737 183.661,135.959 182.0,132.0 Z" />
	<path style="fill:#bfbfbf;" d="M 189.0,132.0 L 189.0,133.0 201.0,133.0 C 197.303,131.448 192.983,132.0 189.0,132.0 Z" />
	<path style="fill:#818181;" d="M 201.0,132.0 L 201.0,138.0 189.0,138.0 189.0,139.0 201.0,139.0 201.0,176.0 202.0,176.0 202.0,139.0 208.0,139.0 208.0,138.0 202.0,138.0 C 201.953,135.747 201.874,134.052 201.0,132.0 Z" />
	<path style="fill:#212121;" d="M 44.0,133.0 L 44.0,138.0 45.0,138.0 C 44.9124,136.036 44.7789,134.769 44.0,133.0 Z" />
	<path style="fill:#010101;" d="M 45.0,133.0 L 45.0,138.0 50.0,138.0 50.0,133.0 45.0,133.0 M 57.0,133.0 L 57.0,138.0 69.0,138.0 69.0,133.0 57.0,133.0 M 101.0,133.0 L 101.0,144.0 107.0,144.0 107.0,133.0 101.0,133.0 Z" />
	<path style="fill:#ffffff;" d="M 107.0,133.0 L 107.0,144.0 113.0,144.0 113.0,133.0 107.0,133.0 Z" />
	<path style="fill:#a1a1a1;" d="M 176.0,133.0 L 176.0,138.0 177.0,138.0 C 176.912,136.036 176.779,134.769 176.0,133.0 Z" />
	<path style="fill:#212121;" d="M 188.0,133.0 L 188.0,138.0 189.0,138.0 C 188.912,136.036 188.779,134.769 188.0,133.0 Z" />
	<path style="fill:#ffffff;" d="M 189.0,133.0 L 189.0,138.0 201.0,138.0 201.0,133.0 189.0,133.0 Z" />
	<path style="fill:#818181;" d="M 25.0,138.0 L 25.0,139.0 38.0,139.0 C 34.0413,137.339 29.2634,138.0 25.0,138.0 M 44.0,138.0 L 44.0,139.0 50.0,139.0 C 47.9479,138.126 46.2528,138.047 44.0,138.0 Z" />
	<path style="fill:#cfcfcf;" d="M 50.0,138.0 L 51.0,139.0 50.0,138.0 M 56.0,138.0 L 57.0,139.0 56.0,138.0 Z" />
	<path style="fill:#818181;" d="M 57.0,138.0 L 57.0,139.0 69.0,139.0 C 65.3025,137.448 60.9832,138.0 57.0,138.0 Z" />
	<path style="fill:#cfcfcf;" d="M 75.0,138.0 L 76.0,139.0 75.0,138.0 Z" />
	<path style="fill:#818181;" d="M 76.0,138.0 L 76.0,139.0 94.0,139.0 94.0,145.0 C 97.9478,135.25 81.4919,138.0 76.0,138.0 Z" />
	<path style="fill:#bfbfbf;" d="M 94.0,138.0 L 95.0,139.0 94.0,138.0 Z" />
	<path style="fill:#818181;" d="M 132.0,138.0 L 132.0,139.0 145.0,139.0 C 141.041,137.339 136.263,138.0 132.0,138.0 M 151.0,138.0 L 151.0,139.0 164.0,139.0 C 160.041,137.339 155.263,138.0 151.0,138.0 M 170.0,138.0 L 170.0,139.0 176.0,139.0 C 173.948,138.126 172.253,138.047 170.0,138.0 Z" />
	<path style="fill:#cfcfcf;" d="M 176.0,138.0 L 177.0,139.0 176.0,138.0 Z" />
	<path style="fill:#414141;" d="M 37.0,139.0 L 37.0,145.0 38.0,145.0 C 37.9528,142.747 37.8742,141.052 37.0,139.0 Z" />
	<path style="fill:#9f9f9f;" d="M 75.0,139.0 L 75.0,145.0 76.0,145.0 C 75.9528,142.747 75.8742,141.052 75.0,139.0 Z" />
	<path style="fill:#bfbfbf;" d="M 132.0,139.0 L 132.0,157.0 133.0,157.0 C 133.0,151.368 134.191,144.222 132.0,139.0 Z" />
	<path style="fill:#dfdfdf;" d="M 144.0,139.0 L 144.0,145.0 145.0,145.0 C 144.953,142.747 144.874,141.052 144.0,139.0 M 151.0,139.0 L 151.0,145.0 152.0,145.0 C 151.953,142.747 151.874,141.052 151.0,139.0 Z" />
	<path style="fill:#616161;" d="M 157.0,139.0 L 157.0,151.0 158.0,151.0 C 158.0,147.017 158.552,142.697 157.0,139.0 Z" />
	<path style="fill:#010101;" d="M 158.0,139.0 L 158.0,151.0 170.0,151.0 170.0,145.0 163.0,145.0 163.0,139.0 158.0,139.0 Z" />
	<path style="fill:#414141;" d="M 163.0,139.0 L 163.0,145.0 164.0,145.0 C 163.953,142.747 163.874,141.052 163.0,139.0 Z" />
	<path style="fill:#ffffff;" d="M 202.0,139.0 L 202.0,151.0 207.0,151.0 207.0,139.0 202.0,139.0 Z" />
	<path style="fill:#bfbfbf;" d="M 207.0,139.0 L 207.0,151.0 208.0,151.0 C 208.0,147.017 208.552,142.697 207.0,139.0 Z" />
	<path style="fill:#dfdfdf;" d="M 38.0,144.0 L 38.0,145.0 51.0,145.0 C 47.0413,143.339 42.2634,144.0 38.0,144.0 M 63.0,144.0 L 63.0,145.0 75.0,145.0 C 71.3025,143.448 66.9832,144.0 63.0,144.0 Z" />
	<path style="fill:#212121;" d="M 81.0,151.0 L 82.0,151.0 82.0,145.0 88.0,145.0 88.0,157.0 C 92.1194,147.183 81.4016,138.769 81.0,151.0 Z" />
	<path style="fill:#dfdfdf;" d="M 95.0,144.0 L 95.0,145.0 100.0,145.0 C 98.231,144.221 96.9641,144.088 95.0,144.0 Z" />
	<path style="fill:#212121;" d="M 101.0,144.0 L 101.0,145.0 107.0,145.0 C 104.948,144.126 103.253,144.047 101.0,144.0 Z" />
	<path style="fill:#dfdfdf;" d="M 107.0,144.0 L 107.0,145.0 113.0,145.0 C 110.948,144.126 109.253,144.047 107.0,144.0 Z" />
	<path style="fill:#212121;" d="M 145.0,144.0 L 145.0,145.0 151.0,145.0 C 148.948,144.126 147.253,144.047 145.0,144.0 Z" />
	<path style="fill:#dfdfdf;" d="M 164.0,144.0 L 164.0,145.0 170.0,145.0 C 167.948,144.126 166.253,144.047 164.0,144.0 Z" />
	<path style="fill:#212121;" d="M 183.0,144.0 L 183.0,145.0 189.0,145.0 C 186.948,144.126 185.253,144.047 183.0,144.0 Z" />
	<path style="fill:#a1a1a1;" d="M 50.0,145.0 L 50.0,157.0 51.0,157.0 C 51.0,153.017 51.5515,148.697 50.0,145.0 Z" />
	<path style="fill:#ffffff;" d="M 82.0,145.0 L 82.0,152.0 76.0,152.0 76.0,163.0 95.0,163.0 95.0,176.0 101.0,176.0 101.0,182.0 107.0,182.0 107.0,170.0 113.0,170.0 113.0,158.0 107.0,158.0 107.0,164.0 100.0,164.0 100.0,157.0 107.0,157.0 107.0,145.0 101.0,145.0 101.0,152.0 95.0,152.0 95.0,158.0 88.0,158.0 88.0,145.0 82.0,145.0 Z" />
	<path style="fill:#414141;" d="M 100.0,145.0 L 100.0,151.0 101.0,151.0 C 100.953,148.747 100.874,147.052 100.0,145.0 Z" />
	<path style="fill:#dfdfdf;" d="M 188.0,145.0 L 188.0,151.0 189.0,151.0 C 188.953,148.747 188.874,147.052 188.0,145.0 Z" />
	<path style="fill:#bfbfbf;" d="M 25.0,151.0 L 25.0,157.0 26.0,157.0 C 25.9528,154.747 25.8742,153.052 25.0,151.0 Z" />
	<path style="fill:#dfdfdf;" d="M 26.0,151.0 L 26.0,152.0 37.0,152.0 C 33.5676,150.56 29.7002,151.0 26.0,151.0 Z" />
	<path style="fill:#bfbfbf;" d="M 37.0,151.0 L 37.0,157.0 38.0,157.0 C 37.9528,154.747 37.8742,153.052 37.0,151.0 Z" />
	<path style="fill:#9f9f9f;" d="M 56.0,151.0 L 56.0,157.0 57.0,157.0 C 56.9528,154.747 56.8742,153.052 56.0,151.0 Z" />
	<path style="fill:#212121;" d="M 57.0,151.0 L 57.0,152.0 63.0,152.0 C 60.9479,151.126 59.2528,151.047 57.0,151.0 Z" />
	<path style="fill:#dfdfdf;" d="M 63.0,151.0 L 63.0,152.0 69.0,152.0 C 66.9479,151.126 65.2528,151.047 63.0,151.0 Z" />
	<path style="fill:#414141;" d="M 69.0,151.0 L 69.0,157.0 70.0,157.0 C 69.9528,154.747 69.8742,153.052 69.0,151.0 Z" />
	<path style="fill:#616161;" d="M 75.0,151.0 L 75.0,164.0 76.0,164.0 C 76.0,159.737 76.6611,154.959 75.0,151.0 Z" />
	<path style="fill:#dfdfdf;" d="M 76.0,151.0 L 76.0,152.0 82.0,152.0 C 79.9479,151.126 78.2528,151.047 76.0,151.0 Z" />
	<path style="fill:#818181;" d="M 94.0,151.0 L 94.0,157.0 95.0,157.0 C 94.9528,154.747 94.8742,153.052 94.0,151.0 Z" />
	<path style="fill:#dfdfdf;" d="M 95.0,151.0 L 95.0,152.0 101.0,152.0 C 98.9479,151.126 97.2528,151.047 95.0,151.0 Z" />
	<path style="fill:#212121;" d="M 120.0,151.0 L 120.0,152.0 126.0,152.0 C 123.948,151.126 122.253,151.047 120.0,151.0 Z" />
	<path style="fill:#818181;" d="M 138.0,151.0 L 138.0,164.0 139.0,164.0 C 139.0,159.737 139.661,154.959 138.0,151.0 Z" />
	<path style="fill:#212121;" d="M 139.0,151.0 L 139.0,152.0 144.0,152.0 144.0,157.0 145.0,157.0 145.0,151.0 139.0,151.0 Z" />
	<path style="fill:#dfdfdf;" d="M 158.0,151.0 L 158.0,152.0 170.0,152.0 C 166.303,150.448 161.983,151.0 158.0,151.0 Z" />
	<path style="fill:#9f9f9f;" d="M 182.0,151.0 L 182.0,170.0 183.0,170.0 C 183.0,164.099 184.295,156.469 182.0,151.0 Z" />
	<path style="fill:#212121;" d="M 183.0,151.0 L 183.0,152.0 189.0,152.0 C 186.948,151.126 185.253,151.047 183.0,151.0 Z" />
	<path style="fill:#bfbfbf;" d="M 195.0,151.0 L 195.0,157.0 196.0,157.0 C 195.953,154.747 195.874,153.052 195.0,151.0 Z" />
	<path style="fill:#dfdfdf;" d="M 196.0,151.0 L 196.0,152.0 201.0,152.0 C 199.231,151.221 197.964,151.088 196.0,151.0 Z" />
	<path style="fill:#212121;" d="M 202.0,151.0 L 202.0,152.0 208.0,152.0 C 205.948,151.126 204.253,151.047 202.0,151.0 Z" />
	<path style="fill:#ffffff;" d="M 26.0,152.0 L 26.0,157.0 37.0,157.0 37.0,152.0 26.0,152.0 M 63.0,152.0 L 63.0,157.0 69.0,157.0 69.0,152.0 63.0,152.0 Z" />
	<path style="fill:#010101;" d="M 139.0,152.0 L 139.0,157.0 144.0,157.0 144.0,152.0 139.0,152.0 Z" />
	<path style="fill:#ffffff;" d="M 196.0,152.0 C 195.291,156.444 193.394,157.665 189.0,158.0 L 189.0,163.0 201.0,163.0 201.0,152.0 196.0,152.0 Z" />
	<path style="fill:#616161;" d="M 25.0,157.0 L 25.0,158.0 38.0,158.0 C 34.0413,156.339 29.2634,157.0 25.0,157.0 M 50.0,157.0 L 50.0,158.0 57.0,158.0 C 54.6684,157.015 52.5433,157.019 50.0,157.0 M 63.0,157.0 L 63.0,158.0 69.0,158.0 C 66.9479,157.126 65.2528,157.047 63.0,157.0 Z" />
	<path style="fill:#9f9f9f;" d="M 88.0,157.0 L 88.0,158.0 94.0,158.0 C 91.9479,157.126 90.2528,157.047 88.0,157.0 Z" />
	<path style="fill:#cfcfcf;" d="M 94.0,157.0 L 95.0,158.0 94.0,157.0 Z" />
	<path style="fill:#bfbfbf;" d="M 100.0,157.0 L 100.0,164.0 101.0,164.0 C 100.981,161.457 100.985,159.332 100.0,157.0 Z" />
	<path style="fill:#616161;" d="M 101.0,157.0 L 101.0,158.0 107.0,158.0 C 104.948,157.126 103.253,157.047 101.0,157.0 Z" />
	<path style="fill:#9f9f9f;" d="M 107.0,157.0 L 107.0,158.0 113.0,158.0 C 110.948,157.126 109.253,157.047 107.0,157.0 Z" />
	<path style="fill:#616161;" d="M 113.0,157.0 L 113.0,170.0 114.0,170.0 C 114.0,165.737 114.661,160.959 113.0,157.0 M 119.0,157.0 L 119.0,170.0 120.0,170.0 C 120.0,165.737 120.661,160.959 119.0,157.0 Z" />
	<path style="fill:#9f9f9f;" d="M 120.0,157.0 L 120.0,158.0 132.0,158.0 C 128.303,156.448 123.983,157.0 120.0,157.0 Z" />
	<path style="fill:#616161;" d="M 132.0,157.0 L 132.0,158.0 138.0,158.0 C 135.948,157.126 134.253,157.047 132.0,157.0 Z" />
	<path style="fill:#9f9f9f;" d="M 139.0,157.0 L 139.0,158.0 145.0,158.0 C 142.948,157.126 141.253,157.047 139.0,157.0 M 157.0,157.0 L 158.0,158.0 157.0,157.0 Z" />
	<path style="fill:#616161;" d="M 157.0,176.0 L 158.0,176.0 158.0,158.0 176.0,158.0 C 172.392,156.486 159.708,155.041 157.603,159.318 155.507,163.577 157.0,171.315 157.0,176.0 Z" />
	<path style="fill:#a1a1a1;" d="M 176.0,157.0 L 176.0,176.0 177.0,176.0 C 177.0,170.099 178.295,162.469 176.0,157.0 Z" />
	<path style="fill:#9f9f9f;" d="M 189.0,157.0 L 189.0,158.0 195.0,158.0 C 192.948,157.126 191.253,157.047 189.0,157.0 Z" />
	<path style="fill:#010101;" d="M 101.0,158.0 L 101.0,163.0 107.0,163.0 107.0,158.0 101.0,158.0 Z" />
	<path style="fill:#414141;" d="M 132.0,158.0 L 132.0,170.0 133.0,170.0 C 133.0,166.017 133.552,161.697 132.0,158.0 Z" />
	<path style="fill:#010101;" d="M 133.0,158.0 L 133.0,170.0 144.0,170.0 144.0,164.0 138.0,164.0 138.0,158.0 133.0,158.0 M 158.0,158.0 L 158.0,176.0 176.0,176.0 176.0,158.0 158.0,158.0 Z" />
	<path style="fill:#212121;" d="M 188.0,158.0 L 188.0,164.0 189.0,164.0 C 188.953,161.747 188.874,160.052 188.0,158.0 Z" />
	<path style="fill:#414141;" d="M 25.0,163.0 L 25.0,164.0 69.0,164.0 69.0,208.0 C 72.7074,199.165 70.0,184.585 70.0,175.0 70.0,172.02 71.0728,166.147 68.3966,164.028 65.6153,161.825 59.3281,163.0 56.0,163.0 L 25.0,163.0 Z" />
	<path style="fill:#bfbfbf;" d="M 76.0,163.0 L 76.0,164.0 95.0,164.0 C 89.5308,161.705 81.9013,163.0 76.0,163.0 Z" />
	<path style="fill:#414141;" d="M 101.0,163.0 L 101.0,164.0 107.0,164.0 C 104.948,163.126 103.253,163.047 101.0,163.0 Z" />
	<path style="fill:#bfbfbf;" d="M 139.0,163.0 L 139.0,164.0 145.0,164.0 C 142.948,163.126 141.253,163.047 139.0,163.0 Z" />
	<path style="fill:#414141;" d="M 163.0,170.0 L 164.0,170.0 164.0,164.0 170.0,164.0 C 164.824,161.904 163.156,165.264 163.0,170.0 Z" />
	<path style="fill:#bfbfbf;" d="M 189.0,163.0 L 189.0,164.0 201.0,164.0 C 197.303,162.448 192.983,163.0 189.0,163.0 Z" />
	<path style="fill:#414141;" d="M 202.0,163.0 L 202.0,164.0 208.0,164.0 C 205.948,163.126 204.253,163.047 202.0,163.0 Z" />
	<path style="fill:#bfbfbf;" d="M 25.0,164.0 L 25.0,196.0 C 25.0,198.98 23.9272,204.853 26.6034,206.972 29.2214,209.046 34.8785,208.0 38.0,208.0 L 69.0,208.0 69.0,207.0 26.0,207.0 C 26.0,194.781 29.7105,175.226 25.0,164.0 Z" />
	<path style="fill:#ffffff;" d="M 26.0,164.0 L 26.0,207.0 69.0,207.0 69.0,164.0 26.0,164.0 Z" />
	<path style="fill:#818181;" d="M 94.0,164.0 L 94.0,176.0 95.0,176.0 C 95.0,172.017 95.5515,167.697 94.0,164.0 Z" />
	<path style="fill:#212121;" d="M 144.0,164.0 L 144.0,170.0 145.0,170.0 C 144.953,167.747 144.874,166.052 144.0,164.0 Z" />
	<path style="fill:#ffffff;" d="M 164.0,164.0 L 164.0,170.0 170.0,170.0 170.0,164.0 164.0,164.0 M 202.0,164.0 L 202.0,176.0 207.0,176.0 207.0,164.0 202.0,164.0 Z" />
	<path style="fill:#bfbfbf;" d="M 207.0,164.0 L 207.0,176.0 208.0,176.0 C 208.0,172.017 208.552,167.697 207.0,164.0 Z" />
	<path style="fill:#818181;" d="M 31.0,170.0 C 31.0,175.98 27.7614,197.137 32.6034,200.972 38.0027,205.249 56.1772,202.0 63.0,202.0 L 63.0,201.0 32.0,201.0 C 32.0,191.924 34.5108,178.367 31.0,170.0 Z" />
	<path style="fill:#010101;" d="M 32.0,170.0 L 32.0,201.0 63.0,201.0 63.0,170.0 32.0,170.0 Z" />
	<path style="fill:#616161;" d="M 75.0,170.0 L 75.0,183.0 76.0,183.0 C 76.0,178.737 76.6611,173.959 75.0,170.0 Z" />
	<path style="fill:#ffffff;" d="M 76.0,170.0 L 76.0,182.0 88.0,182.0 88.0,177.0 C 83.1084,176.627 81.3732,174.892 81.0,170.0 L 76.0,170.0 Z" />
	<path style="fill:#dfdfdf;" d="M 81.0,170.0 L 81.0,176.0 82.0,176.0 C 81.9528,173.747 81.8742,172.052 81.0,170.0 Z" />
	<path style="fill:#010101;" d="M 107.0,170.0 L 107.0,182.0 126.0,182.0 126.0,170.0 120.0,170.0 120.0,177.0 113.0,177.0 113.0,170.0 107.0,170.0 Z" />
	<path style="fill:#a1a1a1;" d="M 113.0,170.0 L 113.0,176.0 114.0,176.0 C 113.953,173.747 113.874,172.052 113.0,170.0 Z" />
	<path style="fill:#ffffff;" d="M 114.0,170.0 L 114.0,176.0 119.0,176.0 119.0,170.0 114.0,170.0 Z" />
	<path style="fill:#9f9f9f;" d="M 119.0,170.0 L 119.0,176.0 120.0,176.0 C 119.953,173.747 119.874,172.052 119.0,170.0 Z" />
	<path style="fill:#dfdfdf;" d="M 188.0,170.0 L 188.0,176.0 189.0,176.0 C 188.953,173.747 188.874,172.052 188.0,170.0 Z" />
	<path style="fill:#414141;" d="M 37.0,176.0 C 37.0,180.282 34.9425,192.073 38.6034,194.972 42.3083,197.907 52.443,196.0 57.0,196.0 L 57.0,195.0 38.0,195.0 C 38.0,189.099 39.295,181.469 37.0,176.0 Z" />
	<path style="fill:#9f9f9f;" d="M 38.0,176.0 L 38.0,177.0 56.0,177.0 56.0,195.0 C 57.514,191.392 58.9594,178.708 54.6821,176.603 50.4225,174.507 42.6847,176.0 38.0,176.0 Z" />
	<path style="fill:#616161;" d="M 56.0,176.0 L 57.0,177.0 56.0,176.0 Z" />
	<path style="fill:#9f9f9f;" d="M 82.0,176.0 L 82.0,177.0 88.0,177.0 C 85.9479,176.126 84.2528,176.047 82.0,176.0 Z" />
	<path style="fill:#313131;" d="M 94.0,176.0 L 95.0,177.0 94.0,176.0 Z" />
	<path style="fill:#616161;" d="M 95.0,176.0 L 95.0,177.0 100.0,177.0 C 98.231,176.221 96.9641,176.088 95.0,176.0 Z" />
	<path style="fill:#8f8f8f;" d="M 100.0,176.0 L 101.0,177.0 100.0,176.0 Z" />
	<path style="fill:#616161;" d="M 113.0,176.0 L 113.0,177.0 120.0,177.0 C 117.668,176.015 115.543,176.019 113.0,176.0 Z" />
	<path style="fill:#afafaf;" d="M 138.0,176.0 L 139.0,177.0 138.0,176.0 Z" />
	<path style="fill:#616161;" d="M 139.0,176.0 L 139.0,177.0 145.0,177.0 C 142.948,176.126 141.253,176.047 139.0,176.0 Z" />
	<path style="fill:#9f9f9f;" d="M 157.0,176.0 L 157.0,177.0 176.0,177.0 C 170.531,174.705 162.901,176.0 157.0,176.0 M 182.0,176.0 L 182.0,182.0 176.0,182.0 176.0,183.0 183.0,183.0 C 182.981,180.457 182.985,178.332 182.0,176.0 Z" />
	<path style="fill:#616161;" d="M 183.0,176.0 L 183.0,177.0 189.0,177.0 C 186.948,176.126 185.253,176.047 183.0,176.0 Z" />
	<path style="fill:#313131;" d="M 201.0,176.0 L 202.0,177.0 201.0,176.0 Z" />
	<path style="fill:#616161;" d="M 202.0,176.0 L 202.0,177.0 208.0,177.0 C 205.948,176.126 204.253,176.047 202.0,176.0 Z" />
	<path style="fill:#ffffff;" d="M 38.0,177.0 L 38.0,195.0 56.0,195.0 56.0,177.0 38.0,177.0 Z" />
	<path style="fill:#212121;" d="M 88.0,177.0 L 88.0,182.0 89.0,182.0 C 88.9124,180.036 88.7789,178.769 88.0,177.0 Z" />
	<path style="fill:#414141;" d="M 100.0,177.0 L 100.0,182.0 101.0,182.0 C 100.912,180.036 100.779,178.769 100.0,177.0 Z" />
	<path style="fill:#818181;" d="M 138.0,177.0 L 138.0,182.0 139.0,182.0 C 138.912,180.036 138.779,178.769 138.0,177.0 Z" />
	<path style="fill:#212121;" d="M 144.0,177.0 L 144.0,182.0 145.0,182.0 C 144.912,180.036 144.779,178.769 144.0,177.0 Z" />
	<path style="fill:#9f9f9f;" d="M 76.0,182.0 L 76.0,183.0 88.0,183.0 C 84.3025,181.448 79.9832,182.0 76.0,182.0 Z" />
	<path style="fill:#313131;" d="M 94.0,182.0 L 95.0,183.0 94.0,182.0 Z" />
	<path style="fill:#616161;" d="M 95.0,182.0 L 95.0,183.0 101.0,183.0 C 98.9479,182.126 97.2528,182.047 95.0,182.0 Z" />
	<path style="fill:#9f9f9f;" d="M 101.0,182.0 L 101.0,183.0 107.0,183.0 C 104.948,182.126 103.253,182.047 101.0,182.0 Z" />
	<path style="fill:#616161;" d="M 107.0,182.0 L 107.0,183.0 126.0,183.0 C 120.531,180.705 112.901,182.0 107.0,182.0 Z" />
	<path style="fill:#9f9f9f;" d="M 132.0,182.0 L 132.0,183.0 138.0,183.0 C 135.948,182.126 134.253,182.047 132.0,182.0 Z" />
	<path style="fill:#515151;" d="M 138.0,182.0 L 139.0,183.0 138.0,182.0 Z" />
	<path style="fill:#9f9f9f;" d="M 145.0,182.0 L 145.0,183.0 170.0,183.0 C 163.072,180.093 152.497,182.0 145.0,182.0 Z" />
	<path style="fill:#616161;" d="M 182.0,189.0 L 183.0,189.0 183.0,183.0 208.0,183.0 C 200.697,179.936 182.324,179.126 182.0,189.0 Z" />
	<path style="fill:#818181;" d="M 94.0,183.0 L 94.0,189.0 95.0,189.0 C 94.9528,186.747 94.8742,185.052 94.0,183.0 Z" />
	<path style="fill:#bfbfbf;" d="M 100.0,183.0 L 100.0,189.0 101.0,189.0 C 100.953,186.747 100.874,185.052 100.0,183.0 Z" />
	<path style="fill:#010101;" d="M 101.0,183.0 L 101.0,188.0 107.0,188.0 107.0,183.0 101.0,183.0 Z" />
	<path style="fill:#414141;" d="M 132.0,183.0 L 132.0,189.0 133.0,189.0 C 132.953,186.747 132.874,185.052 132.0,183.0 Z" />
	<path style="fill:#616161;" d="M 176.0,183.0 L 176.0,196.0 177.0,196.0 C 177.0,191.737 177.661,186.959 176.0,183.0 Z" />
	<path style="fill:#ffffff;" d="M 183.0,183.0 L 183.0,188.0 C 197.373,188.0 196.0,194.413 196.0,207.0 L 201.0,207.0 201.0,201.0 207.0,201.0 207.0,183.0 183.0,183.0 Z" />
	<path style="fill:#bfbfbf;" d="M 207.0,183.0 L 207.0,201.0 208.0,201.0 C 208.0,195.368 209.191,188.222 207.0,183.0 Z" />
	<path style="fill:#212121;" d="M 82.0,188.0 L 82.0,189.0 94.0,189.0 C 90.3025,187.448 85.9832,188.0 82.0,188.0 M 101.0,188.0 L 101.0,189.0 107.0,189.0 C 104.948,188.126 103.253,188.047 101.0,188.0 Z" />
	<path style="fill:#dfdfdf;" d="M 114.0,188.0 L 114.0,189.0 120.0,189.0 C 117.948,188.126 116.253,188.047 114.0,188.0 M 126.0,188.0 L 126.0,189.0 132.0,189.0 C 129.948,188.126 128.253,188.047 126.0,188.0 Z" />
	<path style="fill:#212121;" d="M 133.0,188.0 L 133.0,189.0 145.0,189.0 C 141.303,187.448 136.983,188.0 133.0,188.0 M 158.0,188.0 L 158.0,189.0 164.0,189.0 C 161.948,188.126 160.253,188.047 158.0,188.0 Z" />
	<path style="fill:#dfdfdf;" d="M 183.0,188.0 L 183.0,189.0 195.0,189.0 C 191.303,187.448 186.983,188.0 183.0,188.0 Z" />
	<path style="fill:#212121;" d="M 81.0,189.0 L 81.0,195.0 82.0,195.0 C 81.9528,192.747 81.8742,191.052 81.0,189.0 Z" />
	<path style="fill:#616161;" d="M 113.0,189.0 L 113.0,196.0 114.0,196.0 C 113.981,193.457 113.985,191.332 113.0,189.0 Z" />
	<path style="fill:#010101;" d="M 114.0,189.0 L 114.0,195.0 119.0,195.0 119.0,189.0 114.0,189.0 Z" />
	<path style="fill:#616161;" d="M 119.0,189.0 L 119.0,195.0 120.0,195.0 C 119.953,192.747 119.874,191.052 119.0,189.0 Z" />
	<path style="fill:#010101;" d="M 126.0,189.0 L 126.0,201.0 132.0,201.0 132.0,189.0 126.0,189.0 Z" />
	<path style="fill:#bfbfbf;" d="M 132.0,189.0 L 132.0,201.0 133.0,201.0 C 133.0,197.017 133.552,192.697 132.0,189.0 Z" />
	<path style="fill:#ffffff;" d="M 133.0,189.0 C 133.0,195.432 133.878,201.399 126.0,202.0 L 126.0,207.0 138.0,207.0 138.0,195.0 144.0,195.0 144.0,189.0 133.0,189.0 Z" />
	<path style="fill:#dfdfdf;" d="M 144.0,189.0 L 144.0,195.0 145.0,195.0 C 144.953,192.747 144.874,191.052 144.0,189.0 Z" />
	<path style="fill:#a1a1a1;" d="M 157.0,189.0 L 157.0,196.0 158.0,196.0 C 157.981,193.457 157.985,191.332 157.0,189.0 Z" />
	<path style="fill:#ffffff;" d="M 158.0,189.0 L 158.0,195.0 163.0,195.0 163.0,189.0 158.0,189.0 Z" />
	<path style="fill:#bfbfbf;" d="M 163.0,189.0 L 163.0,195.0 164.0,195.0 C 163.953,192.747 163.874,191.052 163.0,189.0 M 195.0,189.0 C 195.0,195.69 192.121,207.308 201.0,208.0 L 201.0,207.0 196.0,207.0 C 196.0,201.368 197.191,194.222 195.0,189.0 Z" />
	<path style="fill:#616161;" d="M 75.0,195.0 L 75.0,208.0 76.0,208.0 C 76.0,203.737 76.6611,198.959 75.0,195.0 Z" />
	<path style="fill:#bfbfbf;" d="M 76.0,195.0 L 76.0,196.0 82.0,196.0 C 79.9479,195.126 78.2528,195.047 76.0,195.0 Z" />
	<path style="fill:#414141;" d="M 88.0,195.0 L 88.0,196.0 94.0,196.0 C 91.9479,195.126 90.2528,195.047 88.0,195.0 Z" />
	<path style="fill:#818181;" d="M 94.0,195.0 L 94.0,201.0 82.0,201.0 82.0,202.0 C 87.2112,202.0 97.3211,203.203 94.0,195.0 Z" />
	<path style="fill:#bfbfbf;" d="M 100.0,195.0 L 100.0,201.0 101.0,201.0 C 100.953,198.747 100.874,197.052 100.0,195.0 Z" />
	<path style="fill:#414141;" d="M 101.0,195.0 L 101.0,196.0 113.0,196.0 C 109.303,194.448 104.983,195.0 101.0,195.0 Z" />
	<path style="fill:#bfbfbf;" d="M 114.0,195.0 L 114.0,196.0 120.0,196.0 C 117.948,195.126 116.253,195.047 114.0,195.0 Z" />
	<path style="fill:#818181;" d="M 138.0,195.0 L 138.0,208.0 139.0,208.0 C 139.0,203.737 139.661,198.959 138.0,195.0 Z" />
	<path style="fill:#414141;" d="M 139.0,195.0 L 139.0,196.0 145.0,196.0 C 142.948,195.126 141.253,195.047 139.0,195.0 Z" />
	<path style="fill:#bfbfbf;" d="M 145.0,195.0 L 145.0,196.0 157.0,196.0 C 153.303,194.448 148.983,195.0 145.0,195.0 Z" />
	<path style="fill:#414141;" d="M 158.0,195.0 L 158.0,196.0 164.0,196.0 C 161.948,195.126 160.253,195.047 158.0,195.0 M 170.0,195.0 L 170.0,196.0 176.0,196.0 C 173.948,195.126 172.253,195.047 170.0,195.0 Z" />
	<path style="fill:#bfbfbf;" d="M 177.0,195.0 L 177.0,196.0 189.0,196.0 C 185.303,194.448 180.983,195.0 177.0,195.0 Z" />
	<path style="fill:#212121;" d="M 88.0,196.0 L 88.0,201.0 89.0,201.0 C 88.9124,199.036 88.7789,197.769 88.0,196.0 Z" />
	<path style="fill:#010101;" d="M 89.0,196.0 L 89.0,201.0 94.0,201.0 94.0,196.0 89.0,196.0 Z" />
	<path style="fill:#a1a1a1;" d="M 113.0,196.0 L 113.0,201.0 114.0,201.0 C 113.912,199.036 113.779,197.769 113.0,196.0 Z" />
	<path style="fill:#212121;" d="M 144.0,196.0 L 144.0,201.0 145.0,201.0 C 144.912,199.036 144.779,197.769 144.0,196.0 Z" />
	<path style="fill:#ffffff;" d="M 145.0,196.0 L 145.0,201.0 C 149.394,201.335 151.291,202.556 152.0,207.0 L 157.0,207.0 157.0,196.0 145.0,196.0 Z" />
	<path style="fill:#616161;" d="M 157.0,196.0 L 157.0,208.0 158.0,208.0 C 158.0,204.017 158.552,199.697 157.0,196.0 Z" />
	<path style="fill:#a1a1a1;" d="M 176.0,196.0 L 176.0,208.0 177.0,208.0 C 177.0,204.017 177.552,199.697 176.0,196.0 Z" />
	<path style="fill:#ffffff;" d="M 177.0,196.0 L 177.0,207.0 182.0,207.0 182.0,201.0 188.0,201.0 188.0,196.0 177.0,196.0 Z" />
	<path style="fill:#dfdfdf;" d="M 188.0,196.0 L 188.0,201.0 189.0,201.0 C 188.912,199.036 188.779,197.769 188.0,196.0 Z" />
	<path style="fill:#bfbfbf;" d="M 31.0,201.0 L 32.0,202.0 31.0,201.0 M 94.0,201.0 L 95.0,202.0 94.0,201.0 Z" />
	<path style="fill:#818181;" d="M 101.0,201.0 L 101.0,202.0 107.0,202.0 C 104.948,201.126 103.253,201.047 101.0,201.0 Z" />
	<path style="fill:#515151;" d="M 113.0,201.0 L 114.0,202.0 113.0,201.0 Z" />
	<path style="fill:#818181;" d="M 114.0,201.0 L 114.0,202.0 132.0,202.0 C 126.778,199.809 119.632,201.0 114.0,201.0 M 145.0,201.0 L 145.0,202.0 151.0,202.0 C 148.948,201.126 147.253,201.047 145.0,201.0 M 164.0,201.0 L 164.0,202.0 170.0,202.0 C 167.948,201.126 166.253,201.047 164.0,201.0 Z" />
	<path style="fill:#cfcfcf;" d="M 182.0,201.0 L 183.0,202.0 182.0,201.0 Z" />
	<path style="fill:#818181;" d="M 183.0,201.0 L 183.0,202.0 189.0,202.0 C 186.948,201.126 185.253,201.047 183.0,201.0 Z" />
	<path style="fill:#bfbfbf;" d="M 201.0,201.0 L 202.0,202.0 201.0,201.0 Z" />
	<path style="fill:#818181;" d="M 202.0,201.0 L 202.0,202.0 208.0,202.0 C 205.948,201.126 204.253,201.047 202.0,201.0 Z" />
	<path style="fill:#dfdfdf;" d="M 81.0,202.0 L 81.0,207.0 82.0,207.0 C 81.9124,205.036 81.7789,203.769 81.0,202.0 M 88.0,202.0 L 88.0,207.0 89.0,207.0 C 88.9124,205.036 88.7789,203.769 88.0,202.0 M 151.0,202.0 L 151.0,207.0 152.0,207.0 C 151.912,205.036 151.779,203.769 151.0,202.0 Z" />
	<path style="fill:#414141;" d="M 163.0,202.0 L 163.0,208.0 164.0,208.0 C 163.953,205.747 163.874,204.052 163.0,202.0 Z" />
	<path style="fill:#ffffff;" d="M 164.0,202.0 L 164.0,207.0 170.0,207.0 170.0,202.0 164.0,202.0 Z" />
	<path style="fill:#9f9f9f;" d="M 182.0,202.0 L 182.0,207.0 183.0,207.0 C 182.912,205.036 182.779,203.769 182.0,202.0 Z" />
	<path style="fill:#818181;" d="M 201.0,202.0 L 201.0,208.0 202.0,208.0 C 201.953,205.747 201.874,204.052 201.0,202.0 Z" />
	<path style="fill:#8f8f8f;" d="M 25.0,207.0 L 26.0,208.0 25.0,207.0 Z" />
	<path style="fill:#bfbfbf;" d="M 76.0,207.0 L 76.0,208.0 82.0,208.0 C 79.9479,207.126 78.2528,207.047 76.0,207.0 M 88.0,207.0 L 88.0,208.0 107.0,208.0 C 101.531,205.705 93.9013,207.0 88.0,207.0 M 126.0,207.0 L 126.0,208.0 138.0,208.0 C 134.303,206.448 129.983,207.0 126.0,207.0 M 151.0,207.0 L 151.0,208.0 157.0,208.0 C 154.948,207.126 153.253,207.047 151.0,207.0 M 164.0,207.0 L 164.0,208.0 170.0,208.0 C 167.948,207.126 166.253,207.047 164.0,207.0 M 177.0,207.0 L 177.0,208.0 182.0,208.0 C 180.231,207.221 178.964,207.088 177.0,207.0 Z" />
	<path style="fill:#707070;" d="M 182.0,207.0 L 183.0,208.0 182.0,207.0 Z" />
	<path style="fill:#8f8f8f;" d="M 195.0,207.0 L 196.0,208.0 195.0,207.0 Z" />
</g>
</svg>