<?xml version="1.0" encoding="utf-8"?>
<!-- Created by UniConvertor 2.0rc5 (https://sk1project.net/) -->
<svg xmlns="http://www.w3.org/2000/svg" height="40.0px" width="40.0px" version="1.1" xmlns:xlink="http://www.w3.org/1999/xlink" id="f6be8fa0-bd78-11ec-bef7-a8a1598cb569">

<g>
	<path style="fill:#ffffff;" d="M 0.0,0.0 L 0.0,40.0 28.0,40.0 C 24.3751,34.8541 11.0556,26.3398 11.0556,20.0 11.0556,13.6602 24.3751,5.1459 28.0,0.0 L 0.0,0.0 Z" />
	<path style="fill:#414141;" d="M 28.0,0.0 L 29.0,1.0 28.0,0.0 Z" />
	<path style="fill:#010101;" d="M 29.0,0.0 C 23.6824,4.0516 12.2061,12.1762 10.7515,19.0 9.308,25.7722 24.7647,37.2841 30.0,40.0 27.9457,32.6812 15.0556,27.1266 15.0556,20.0 15.0556,11.9257 30.736,8.6555 29.0,0.0 Z" />
	<path style="fill:#959595;" d="M 30.0,0.0 L 31.0,1.0 30.0,0.0 Z" />
	<path style="fill:#ffffff;" d="M 31.0,0.0 C 28.0613,6.3017 15.2068,13.1676 15.2068,20.0 15.2068,26.8324 28.0613,33.6983 31.0,40.0 L 40.0,40.0 40.0,0.0 31.0,0.0 Z" />
	<path style="fill:#3f3f3f;" d="M 30.0,1.0 L 31.0,2.0 30.0,1.0 Z" />
	<path style="fill:#858585;" d="M 30.0,2.0 L 31.0,3.0 30.0,2.0 Z" />
	<path style="fill:#7f7f7f;" d="M 29.0,3.0 L 30.0,4.0 29.0,3.0 M 28.0,4.0 L 29.0,5.0 28.0,4.0 M 27.0,5.0 L 28.0,6.0 27.0,5.0 M 26.0,6.0 L 27.0,7.0 26.0,6.0 M 25.0,7.0 L 26.0,8.0 25.0,7.0 M 24.0,8.0 L 25.0,9.0 24.0,8.0 M 23.0,9.0 L 24.0,10.0 23.0,9.0 M 22.0,10.0 L 23.0,11.0 22.0,10.0 M 21.0,11.0 L 22.0,12.0 21.0,11.0 M 20.0,12.0 L 21.0,13.0 20.0,12.0 M 19.0,13.0 L 20.0,14.0 19.0,13.0 M 18.0,14.0 L 19.0,15.0 18.0,14.0 M 17.0,15.0 L 18.0,16.0 17.0,15.0 M 16.0,16.0 L 17.0,17.0 16.0,16.0 M 15.0,17.0 L 16.0,18.0 15.0,17.0 Z" />
	<path style="fill:#818181;" d="M 14.0,18.0 L 15.0,19.0 14.0,18.0 Z" />
	<path style="fill:#4d4d4d;" d="M 9.3333,19.6667 C 9.2778,19.7222 9.2222,20.7778 9.6667,20.3333 9.7222,20.2778 9.7778,19.2222 9.3333,19.6667 Z" />
	<path style="fill:#818181;" d="M 13.3333,19.6667 C 13.2778,19.7222 13.2222,20.7778 13.6667,20.3333 13.7222,20.2778 13.7778,19.2222 13.3333,19.6667 M 14.0,21.0 L 15.0,22.0 14.0,21.0 M 15.0,22.0 L 16.0,23.0 15.0,22.0 M 16.0,23.0 L 17.0,24.0 16.0,23.0 M 17.0,24.0 L 18.0,25.0 17.0,24.0 M 18.0,25.0 L 19.0,26.0 18.0,25.0 M 19.0,26.0 L 20.0,27.0 19.0,26.0 M 20.0,27.0 L 21.0,28.0 20.0,27.0 M 21.0,28.0 L 22.0,29.0 21.0,28.0 M 22.0,29.0 L 23.0,30.0 22.0,29.0 M 23.0,30.0 L 24.0,31.0 23.0,30.0 M 24.0,31.0 L 25.0,32.0 24.0,31.0 M 25.0,32.0 L 26.0,33.0 25.0,32.0 M 26.0,33.0 L 27.0,34.0 26.0,33.0 M 27.0,34.0 L 28.0,35.0 27.0,34.0 M 28.0,35.0 L 29.0,36.0 28.0,35.0 M 29.0,36.0 L 30.0,37.0 29.0,36.0 Z" />
	<path style="fill:#8f8f8f;" d="M 30.0,37.0 L 31.0,38.0 30.0,37.0 Z" />
	<path style="fill:#3d3d3d;" d="M 30.0,38.0 L 31.0,39.0 30.0,38.0 M 28.0,39.0 L 29.0,40.0 28.0,39.0 Z" />
	<path style="fill:#a1a1a1;" d="M 30.0,39.0 L 31.0,40.0 30.0,39.0 Z" />
</g>
</svg>