<?xml version="1.0" encoding="utf-8"?>
<!-- Created by UniConvertor 2.0rc5 (https://sk1project.net/) -->
<svg xmlns="http://www.w3.org/2000/svg" height="50.0px" width="50.0px" version="1.1" xmlns:xlink="http://www.w3.org/1999/xlink" id="e150d884-bd79-11ec-8126-a8a1598cb569">

<g>
	<path style="fill:#ffffff;" d="M 0.0,0.0 L 0.0,19.0 1.0,19.0 C 3.227,10.1894 10.1894,3.227 19.0,1.0 13.5308,-1.295 5.9013,0.0 0.0,0.0 Z" />
	<path style="fill:#9b9b9b;" d="M 19.0,0.0 L 20.0,1.0 19.0,0.0 Z" />
	<path style="fill:#424242;" d="M 20.6667,0.3333 C 20.2222,0.7778 21.2778,0.7222 21.3333,0.6667 21.7778,0.2222 20.7222,0.2778 20.6667,0.3333 Z" />
	<path style="fill:#010101;" d="M 22.0,0.4545 C -8.8075,4.658 -4.2323,52.6773 27.0,49.5324 59.3855,46.2714 54.1718,-3.9352 22.0,0.4545 Z" />
	<path style="fill:#424242;" d="M 27.0,0.0 L 27.0,1.0 30.0,1.0 C 28.7516,0.3152 28.4516,0.2512 27.0,0.0 Z" />
	<path style="fill:#9b9b9b;" d="M 30.0,0.0 L 31.0,1.0 30.0,0.0 Z" />
	<path style="fill:#ffffff;" d="M 31.0,0.0 L 31.0,1.0 C 39.8106,3.227 46.773,10.1894 49.0,19.0 L 50.0,19.0 50.0,0.0 31.0,0.0 Z" />
	<path style="fill:#797979;" d="M 16.0,1.0 L 17.0,2.0 16.0,1.0 Z" />
	<path style="fill:#2d2d2d;" d="M 32.0,1.0 L 33.0,2.0 32.0,1.0 Z" />
	<path style="fill:#797979;" d="M 33.0,1.0 L 34.0,2.0 33.0,1.0 Z" />
	<path style="fill:#c8c8c8;" d="M 13.0,2.0 L 14.0,3.0 13.0,2.0 Z" />
	<path style="fill:#4e4e4e;" d="M 14.0,2.0 L 15.0,3.0 14.0,2.0 Z" />
	<path style="fill:#5b5b5b;" d="M 35.0,2.0 L 36.0,3.0 35.0,2.0 Z" />
	<path style="fill:#d0d0d0;" d="M 36.0,2.0 L 37.0,3.0 36.0,2.0 Z" />
	<path style="fill:#5b5b5b;" d="M 12.0,3.0 L 13.0,4.0 12.0,3.0 Z" />
	<path style="fill:#656565;" d="M 37.0,3.0 L 38.0,4.0 37.0,3.0 Z" />
	<path style="fill:#9b9b9b;" d="M 10.0,4.0 L 11.0,5.0 10.0,4.0 M 39.0,4.0 L 40.0,5.0 39.0,4.0 Z" />
	<path style="fill:#797979;" d="M 9.0,5.0 L 10.0,6.0 9.0,5.0 M 40.0,5.0 L 41.0,6.0 40.0,5.0 Z" />
	<path style="fill:#3a3a3a;" d="M 8.0,6.0 L 9.0,7.0 8.0,6.0 M 41.0,6.0 L 42.0,7.0 41.0,6.0 M 6.0,8.0 L 7.0,9.0 6.0,8.0 M 43.0,8.0 L 44.0,9.0 43.0,8.0 Z" />
	<path style="fill:#797979;" d="M 5.0,9.0 L 6.0,10.0 5.0,9.0 M 44.0,9.0 L 45.0,10.0 44.0,9.0 Z" />
	<path style="fill:#9b9b9b;" d="M 4.0,10.0 L 5.0,11.0 4.0,10.0 Z" />
	<path style="fill:#ababab;" d="M 45.0,10.0 L 46.0,11.0 45.0,10.0 Z" />
	<path style="fill:#656565;" d="M 3.0,12.0 L 4.0,13.0 3.0,12.0 Z" />
	<path style="fill:#5b5b5b;" d="M 46.0,12.0 L 47.0,13.0 46.0,12.0 Z" />
	<path style="fill:#d0d0d0;" d="M 2.0,13.0 L 3.0,14.0 2.0,13.0 Z" />
	<path style="fill:#c8c8c8;" d="M 47.0,13.0 L 48.0,14.0 47.0,13.0 Z" />
	<path style="fill:#5b5b5b;" d="M 2.0,14.0 L 3.0,15.0 2.0,14.0 Z" />
	<path style="fill:#4e4e4e;" d="M 47.0,14.0 L 48.0,15.0 47.0,14.0 Z" />
	<path style="fill:#797979;" d="M 1.0,16.0 L 2.0,17.0 1.0,16.0 M 48.0,16.0 L 49.0,17.0 48.0,16.0 Z" />
	<path style="fill:#2d2d2d;" d="M 1.0,17.0 L 2.0,18.0 1.0,17.0 Z" />
	<path style="fill:#797979;" d="M 21.0,18.0 L 21.0,19.0 27.0,19.0 C 24.9479,18.1258 23.2528,18.0472 21.0,18.0 Z" />
	<path style="fill:#9b9b9b;" d="M 0.0,19.0 L 1.0,20.0 0.0,19.0 Z" />
	<path style="fill:#424242;" d="M 12.3333,19.6667 C 12.2778,19.7222 12.2222,20.7778 12.6667,20.3333 12.7222,20.2778 12.7778,19.2222 12.3333,19.6667 Z" />
	<path style="fill:#ffffff;" d="M 13.0,19.0 C 14.6129,24.5858 21.9755,37.3446 28.0,29.0 31.0557,31.1999 33.2478,31.8814 37.0,32.0 34.3128,26.3053 35.5247,24.7832 37.0,19.0 32.1776,19.3723 30.5113,22.0724 27.0,25.0 L 27.0,19.0 21.0,19.0 21.0,20.0 C 22.5686,22.2243 22.4843,23.2936 22.0,26.0 19.1833,22.6492 17.4912,19.7304 13.0,19.0 Z" />
	<path style="fill:#9b9b9b;" d="M 17.0,19.0 L 18.0,20.0 17.0,19.0 Z" />
	<path style="fill:#3a3a3a;" d="M 27.0,19.0 L 27.0,22.0 28.0,22.0 C 27.7488,20.5484 27.6848,20.2484 27.0,19.0 Z" />
	<path style="fill:#656565;" d="M 31.0,19.0 L 32.0,20.0 31.0,19.0 Z" />
	<path style="fill:#424242;" d="M 37.3333,19.6667 C 37.2778,19.7222 37.2222,20.7778 37.6667,20.3333 37.7222,20.2778 37.7778,19.2222 37.3333,19.6667 Z" />
	<path style="fill:#9b9b9b;" d="M 49.0,19.0 L 50.0,20.0 49.0,19.0 Z" />
	<path style="fill:#424242;" d="M 0.0,20.0 L 0.0,23.0 1.0,23.0 C 0.7488,21.5484 0.6848,21.2484 0.0,20.0 Z" />
	<path style="fill:#3a3a3a;" d="M 18.0,20.0 L 19.0,21.0 18.0,20.0 Z" />
	<path style="fill:#c8c8c8;" d="M 22.0,20.0 L 22.0,25.0 23.0,25.0 C 22.9124,23.0359 22.7789,21.769 22.0,20.0 Z" />
	<path style="fill:#424242;" d="M 49.3333,20.6667 C 49.2778,20.7222 49.2222,21.7778 49.6667,21.3333 49.7222,21.2778 49.7778,20.2222 49.3333,20.6667 Z" />
	<path style="fill:#bfbfbf;" d="M 13.0,21.0 L 14.0,22.0 13.0,21.0 Z" />
	<path style="fill:#ababab;" d="M 18.0,21.0 L 19.0,22.0 18.0,21.0 Z" />
	<path style="fill:#5b5b5b;" d="M 30.0,21.0 L 31.0,22.0 30.0,21.0 Z" />
	<path style="fill:#424242;" d="M 13.0,22.0 L 14.0,23.0 13.0,22.0 Z" />
	<path style="fill:#3a3a3a;" d="M 19.0,22.0 L 20.0,23.0 19.0,22.0 Z" />
	<path style="fill:#1d1d1d;" d="M 27.0,22.0 L 27.0,25.0 28.0,25.0 C 27.7488,23.5484 27.6848,23.2484 27.0,22.0 Z" />
	<path style="fill:#c8c8c8;" d="M 14.0,23.0 L 15.0,24.0 14.0,23.0 Z" />
	<path style="fill:#d0d0d0;" d="M 19.0,23.0 L 20.0,24.0 19.0,23.0 Z" />
	<path style="fill:#868686;" d="M 29.0,23.0 L 30.0,24.0 29.0,23.0 Z" />
	<path style="fill:#656565;" d="M 35.0,23.0 L 36.0,24.0 35.0,23.0 Z" />
	<path style="fill:#424242;" d="M 14.0,24.0 L 15.0,25.0 14.0,24.0 Z" />
	<path style="fill:#868686;" d="M 20.0,24.0 L 21.0,25.0 20.0,24.0 Z" />
	<path style="fill:#5b5b5b;" d="M 28.0,24.0 L 29.0,25.0 28.0,24.0 Z" />
	<path style="fill:#9b9b9b;" d="M 34.0,24.0 L 35.0,25.0 34.0,24.0 Z" />
	<path style="fill:#ababab;" d="M 15.0,25.0 L 16.0,26.0 15.0,25.0 M 21.0,25.0 L 22.0,26.0 21.0,25.0 Z" />
	<path style="fill:#797979;" d="M 33.0,26.0 L 34.0,27.0 33.0,26.0 Z" />
	<path style="fill:#424242;" d="M 0.0,27.0 L 0.0,30.0 1.0,30.0 C 0.7488,28.5484 0.6848,28.2484 0.0,27.0 Z" />
	<path style="fill:#5b5b5b;" d="M 16.0,27.0 L 17.0,28.0 16.0,27.0 Z" />
	<path style="fill:#424242;" d="M 49.0,27.0 L 49.0,30.0 50.0,30.0 C 49.7488,28.5484 49.6848,28.2484 49.0,27.0 Z" />
	<path style="fill:#9b9b9b;" d="M 17.0,28.0 L 18.0,29.0 17.0,28.0 Z" />
	<path style="fill:#d0d0d0;" d="M 18.0,29.0 L 19.0,30.0 18.0,29.0 Z" />
	<path style="fill:#9b9b9b;" d="M 28.0,29.0 L 29.0,30.0 28.0,29.0 M 0.0,30.0 L 1.0,31.0 0.0,30.0 Z" />
	<path style="fill:#d0d0d0;" d="M 19.0,30.0 L 20.0,31.0 19.0,30.0 Z" />
	<path style="fill:#656565;" d="M 27.0,30.0 L 28.0,31.0 27.0,30.0 Z" />
	<path style="fill:#797979;" d="M 29.0,30.0 L 30.0,31.0 29.0,30.0 Z" />
	<path style="fill:#d0d0d0;" d="M 36.0,30.0 L 37.0,31.0 36.0,30.0 Z" />
	<path style="fill:#9b9b9b;" d="M 49.0,30.0 L 50.0,31.0 49.0,30.0 Z" />
	<path style="fill:#ffffff;" d="M 0.0,31.0 L 0.0,50.0 19.0,50.0 19.0,49.0 C 8.9451,46.4585 5.1488,39.0302 0.0,31.0 Z" />
	<path style="fill:#797979;" d="M 20.0,31.0 L 21.0,32.0 20.0,31.0 Z" />
	<path style="fill:#3a3a3a;" d="M 27.0,31.0 L 28.0,32.0 27.0,31.0 Z" />
	<path style="fill:#868686;" d="M 30.0,31.0 L 31.0,32.0 30.0,31.0 Z" />
	<path style="fill:#656565;" d="M 37.0,31.0 L 38.0,32.0 37.0,31.0 Z" />
	<path style="fill:#ffffff;" d="M 49.0,31.0 C 46.773,39.8106 39.8106,46.773 31.0,49.0 L 31.0,50.0 50.0,50.0 C 50.0,44.0987 51.295,36.4692 49.0,31.0 Z" />
	<path style="fill:#5b5b5b;" d="M 22.0,32.0 L 23.0,33.0 22.0,32.0 Z" />
	<path style="fill:#bfbfbf;" d="M 23.0,32.0 L 23.0,33.0 27.0,33.0 C 25.494,32.317 24.6852,32.1741 23.0,32.0 Z" />
	<path style="fill:#656565;" d="M 31.0,32.0 L 32.0,33.0 31.0,32.0 Z" />
	<path style="fill:#c8c8c8;" d="M 32.0,32.0 L 32.0,33.0 37.0,33.0 C 35.231,32.2211 33.9641,32.0876 32.0,32.0 Z" />
	<path style="fill:#2d2d2d;" d="M 37.0,32.0 L 38.0,33.0 37.0,32.0 M 48.0,32.0 L 49.0,33.0 48.0,32.0 Z" />
	<path style="fill:#797979;" d="M 1.0,33.0 L 2.0,34.0 1.0,33.0 Z" />
	<path style="fill:#868686;" d="M 48.0,33.0 L 49.0,34.0 48.0,33.0 Z" />
	<path style="fill:#4e4e4e;" d="M 2.0,35.0 L 3.0,36.0 2.0,35.0 Z" />
	<path style="fill:#5b5b5b;" d="M 47.0,35.0 L 48.0,36.0 47.0,35.0 Z" />
	<path style="fill:#c8c8c8;" d="M 2.0,36.0 L 3.0,37.0 2.0,36.0 Z" />
	<path style="fill:#d0d0d0;" d="M 47.0,36.0 L 48.0,37.0 47.0,36.0 Z" />
	<path style="fill:#5b5b5b;" d="M 3.0,37.0 L 4.0,38.0 3.0,37.0 Z" />
	<path style="fill:#656565;" d="M 46.0,37.0 L 47.0,38.0 46.0,37.0 Z" />
	<path style="fill:#9b9b9b;" d="M 4.0,39.0 L 5.0,40.0 4.0,39.0 M 45.0,39.0 L 46.0,40.0 45.0,39.0 Z" />
	<path style="fill:#797979;" d="M 5.0,40.0 L 6.0,41.0 5.0,40.0 M 44.0,40.0 L 45.0,41.0 44.0,40.0 Z" />
	<path style="fill:#3a3a3a;" d="M 6.0,41.0 L 7.0,42.0 6.0,41.0 M 43.0,41.0 L 44.0,42.0 43.0,41.0 M 8.0,43.0 L 9.0,44.0 8.0,43.0 M 41.0,43.0 L 42.0,44.0 41.0,43.0 Z" />
	<path style="fill:#797979;" d="M 9.0,44.0 L 10.0,45.0 9.0,44.0 M 40.0,44.0 L 41.0,45.0 40.0,44.0 Z" />
	<path style="fill:#9b9b9b;" d="M 10.0,45.0 L 11.0,46.0 10.0,45.0 Z" />
	<path style="fill:#ababab;" d="M 39.0,45.0 L 40.0,46.0 39.0,45.0 Z" />
	<path style="fill:#656565;" d="M 12.0,46.0 L 13.0,47.0 12.0,46.0 Z" />
	<path style="fill:#5b5b5b;" d="M 37.0,46.0 L 38.0,47.0 37.0,46.0 Z" />
	<path style="fill:#d0d0d0;" d="M 13.0,47.0 L 14.0,48.0 13.0,47.0 Z" />
	<path style="fill:#5b5b5b;" d="M 14.0,47.0 L 15.0,48.0 14.0,47.0 Z" />
	<path style="fill:#4e4e4e;" d="M 35.0,47.0 L 36.0,48.0 35.0,47.0 Z" />
	<path style="fill:#c8c8c8;" d="M 36.0,47.0 L 37.0,48.0 36.0,47.0 Z" />
	<path style="fill:#868686;" d="M 16.0,48.0 L 17.0,49.0 16.0,48.0 Z" />
	<path style="fill:#2d2d2d;" d="M 17.0,48.0 L 18.0,49.0 17.0,48.0 Z" />
	<path style="fill:#868686;" d="M 33.0,48.0 L 34.0,49.0 33.0,48.0 Z" />
	<path style="fill:#9b9b9b;" d="M 19.0,49.0 L 20.0,50.0 19.0,49.0 Z" />
	<path style="fill:#424242;" d="M 20.0,49.0 L 20.0,50.0 23.0,50.0 C 21.7516,49.3152 21.4516,49.2512 20.0,49.0 M 27.0,49.0 L 27.0,50.0 30.0,50.0 C 28.7516,49.3152 28.4516,49.2512 27.0,49.0 Z" />
	<path style="fill:#9b9b9b;" d="M 30.0,49.0 L 31.0,50.0 30.0,49.0 Z" />
</g>
</svg>